<svg xmlns="http://www.w3.org/2000/svg" viewBox="0 0 890 155"><path fill="currentColor" d="M2.893 97.684h.825v-6.193H6.6v-.825H2.893Zm0 14h.825v-13.2h-.825Zm0 7.818H6.6v-.825H3.718v-6.193h-.825Zm88.822 16.552h5.17c.165 0 .242-.154.165-.319l-2.541-5.313c-.099-.22-.308-.22-.418 0l-2.541 5.313c-.088.165 0 .319.165.319m2.178 11.448H97.6v-.825h-2.882v-6.193h-.825Zm4.107 0h6.6v-.825H98Zm7 0h6.6v-.825H105Zm7 0h6.6v-.825H112Zm7 0h6.6v-.825H119Zm7 0h6.6v-.825H126Zm7 0h6.6v-.825H133Zm7 0h6.6v-.825H140Zm7 0h6.6v-.825H147Zm7 0h6.6v-.825H154Zm7 0h6.6v-.825H161Zm7 0h6.6v-.825H168Zm7 0h6.6v-.825H175Zm7 0h6.6v-.825H182Zm7 0h6.6v-.825H189Zm7 0h6.6v-.825H196Zm7 0h6.6v-.825H203Zm7 0h6.6v-.825H210Zm7 0h6.6v-.825H217Zm7 0h6.6v-.825H224Zm7 0h6.6v-.825H231Zm7 0h6.6v-.825H238Zm7 0h6.6v-.825H245Zm7 0h6.6v-.825H252Zm7 0h6.6v-.825H259Zm7 0h6.6v-.825H266Zm7 0h6.6v-.825H273Zm7 0h6.6v-.825H280Zm7 0h6.6v-.825H287Zm7 0h6.6v-.825H294Zm7 0h6.6v-.825H301Zm7 0h6.6v-.825H308Zm7 0h6.6v-.825H315Zm7 0h6.6v-.825H322Zm7 0h6.6v-.825H329Zm7 0h6.6v-.825H336Zm7 0h6.6v-.825H343Zm7 0h6.6v-.825H350Zm7 0h6.6v-.825H357Zm7 0h6.6v-.825H364Zm7 0h6.6v-.825H371Zm7 0h6.6v-.825H378Zm7 0h6.6v-.825H385Zm7 0h6.6v-.825H392Zm7 0h6.6v-.825H399Zm7 0h6.6v-.825H406Zm7 0h6.6v-.825H413Zm7 0h6.6v-.825H420Zm7 0h6.6v-.825H427Zm7 0h6.6v-.825H434Zm7 0h6.6v-.825H441Zm7 0h6.6v-.825H448Zm7 0h6.6v-.825H455Zm7 0h6.6v-.825H462Zm7 0h6.6v-.825H469Zm7 0h6.6v-.825H476Zm7 0h6.6v-.825H483Zm7 0h6.6v-.825H490Zm7 0h6.6v-.825H497Zm7 0h6.6v-.825H504Zm7 0h6.6v-.825H511Zm7 0h6.6v-.825H518Zm7 0h6.6v-.825H525Zm7 0h6.6v-.825H532Zm7 0h6.6v-.825H539Zm7 0h6.6v-.825H546Zm7 0h6.6v-.825H553Zm7 0h6.6v-.825H560Zm7 0h6.6v-.825H567Zm7 0h6.6v-.825H574Zm7 0h6.6v-.825H581Zm7 0h6.6v-.825H588Zm7 0h6.6v-.825H595Zm7 0h6.6v-.825H602Zm7 0h6.6v-.825H609Zm7 0h6.6v-.825H616Zm7 0h6.6v-.825H623Zm7 0h6.6v-.825H630Zm7 0h6.6v-.825H637Zm7 0h6.6v-.825H644Zm7 0h6.6v-.825H651Zm7 0h6.6v-.825H658Zm7 0h6.6v-.825H665Zm7 0h6.6v-.825H672Zm7 0h6.6v-.825H679Zm7 0h6.6v-.825H686Zm7 0h6.6v-.825H693Zm7 0h6.6v-.825H700Zm7 0h6.6v-.825H707Zm7 0h6.6v-.825H714Zm7 0h6.6v-.825H721Zm7 0h6.6v-.825H728Zm7 0h6.6v-.825H735Zm7 0h6.6v-.825H742Zm7 0h6.6v-.825H749Zm7 0h6.6v-.825H756Zm7 0h6.6v-.825H763Zm7 0h6.6v-.825H770Zm7 0h6.6v-.825H777Zm7 0h6.6v-.825H784Zm7 0h6.6v-.825H791Zm7 0h3.718v-7.018h-.825v6.193H798Zm2.893-7.818h.825v-13.2h-.825ZM7 119.502h6.6v-.825H7Zm7 0h6.6v-.825H14Zm7 0h6.6v-.825H21Zm7 0h6.6v-.825H28Zm7 0h6.6v-.825H35Zm7 0h6.6v-.825H42Zm7 0h6.6v-.825H49Zm7 0h3.718v-7.018h-.825v6.193H56Zm23.893 0H83.6v-.825h-2.882v-6.193h-.825Zm4.107 0h6.6v-.825H84Zm7 0h6.6v-.825H91Zm7 0h6.6v-.825H98Zm7 0h3.718v-7.018h-.825v6.193H105Zm23.893 0h3.707v-.825h-2.882v-6.193h-.825Zm4.107 0h6.6v-.825H133Zm7 0h6.6v-.825H140Zm7 0h6.6v-.825H147Zm7 0h6.6v-.825H154Zm7 0h6.6v-.825H161Zm7 0h6.6v-.825H168Zm7 0h6.6v-.825H175Zm7 0h6.6v-.825H182Zm7 0h6.6v-.825H189Zm7 0h6.6v-.825H196Zm7 0h6.6v-.825H203Zm7 0h6.6v-.825H210Zm7 0h3.718v-7.018h-.825v6.193H217Zm23.893 0h3.707v-.825h-2.882v-6.193h-.825Zm4.107 0h6.6v-.825H245Zm7 0h6.6v-.825H252Zm7 0h6.6v-.825H259Zm7 0h6.6v-.825H266Zm7 0h6.6v-.825H273Zm7 0h6.6v-.825H280Zm7 0h6.6v-.825H287Zm7 0h6.6v-.825H294Zm7 0h6.6v-.825H301Zm7 0h6.6v-.825H308Zm7 0h6.6v-.825H315Zm7 0h6.6v-.825H322Zm7 0h6.6v-.825H329Zm7 0h6.6v-.825H336Zm7 0h6.6v-.825H343Zm7 0h6.6v-.825H350Zm7 0h6.6v-.825H357Zm7 0h6.6v-.825H364Zm7 0h6.6v-.825H371Zm7 0h6.6v-.825H378Zm7 0h6.6v-.825H385Zm7 0h6.6v-.825H392Zm7 0h3.718v-7.018h-.825v6.193H399Zm23.893 0h3.707v-.825h-2.882v-6.193h-.825Zm4.107 0h6.6v-.825H427Zm7 0h6.6v-.825H434Zm7 0h6.6v-.825H441Zm7 0h6.6v-.825H448Zm7 0h6.6v-.825H455Zm7 0h6.6v-.825H462Zm7 0h6.6v-.825H469Zm7 0h6.6v-.825H476Zm7 0h6.6v-.825H483Zm7 0h6.6v-.825H490Zm7 0h6.6v-.825H497Zm7 0h6.6v-.825H504Zm7 0h6.6v-.825H511Zm7 0h6.6v-.825H518Zm7 0h6.6v-.825H525Zm7 0h6.6v-.825H532Zm7 0h6.6v-.825H539Zm7 0h6.6v-.825H546Zm7 0h3.718v-7.018h-.825v6.193H553Zm23.893 0h3.707v-.825h-2.882v-6.193h-.825Zm4.107 0h6.6v-.825H581Zm7 0h6.6v-.825H588Zm7 0h6.6v-.825H595Zm7 0h6.6v-.825H602Zm7 0h6.6v-.825H609Zm7 0h6.6v-.825H616Zm7 0h6.6v-.825H623Zm7 0h6.6v-.825H630Zm7 0h6.6v-.825H637Zm7 0h6.6v-.825H644Zm7 0h6.6v-.825H651Zm7 0h6.6v-.825H658Zm7 0h6.6v-.825H665Zm7 0h6.6v-.825H672Zm7 0h6.6v-.825H679Zm7 0h6.6v-.825H686Zm7 0h6.6v-.825H693Zm7 0h6.6v-.825H700Zm7 0h6.6v-.825H707Zm7 0h6.6v-.825H714Zm7 0h6.6v-.825H721Zm7 0h6.6v-.825H728Zm7 0h6.6v-.825H735Zm7 0h3.718v-7.018h-.825v6.193H742Zm16.893 0h3.707v-.825h-2.882v-6.193h-.825Zm4.107 0h6.6v-.825H763Zm7 0h6.6v-.825H770Zm7 0h6.6v-.825H777Zm7 0h6.6v-.825H784Zm7 0h6.6v-.825H791Zm7 0h6.6v-.825H798Zm7 0h6.6v-.825H805Zm7 0h6.6v-.825H812Zm7 0h6.6v-.825H819Zm7 0h6.6v-.825H826Zm7 0h3.718v-7.018h-.825v6.193H833Zm23.893 0h3.707v-.825h-2.882v-6.193h-.825Zm4.107 0h6.6v-.825H861Zm7 0h6.6v-.825H868Zm7 0h6.6v-.825H875Zm7 0h3.718v-7.018h-.825v6.193H882ZM15.419 109h3.751v-.836h-1.419v-5.808h1.353v-.836h-3.608v.836h1.353v5.808h-1.43Zm6.582 0h.88v-2.915c0-1.683.286-2.046 1.562-2.046 1.034 0 1.265.242 1.265 1.331V109h.88v-3.63c0-1.782-.352-2.178-1.936-2.178-1.133 0-1.452.187-1.771 1.034h-.055v-.924h-.825Zm6.989 2.365h.858v-2.992h.055c.231.605.495.737 1.496.737 1.936 0 2.365-.528 2.365-2.959s-.429-2.959-2.398-2.959c-1.012 0-1.287.132-1.518.737h-.055v-.627h-.803Zm2.354-3.08c-1.265 0-1.54-.385-1.54-2.134s.275-2.134 1.54-2.134c1.276 0 1.562.385 1.562 2.156 0 1.727-.286 2.112-1.562 2.112m9.266-4.983h-.88v2.915c0 1.683-.286 2.046-1.562 2.046-1.034 0-1.265-.242-1.265-1.331v-3.63h-.88v3.63c0 1.782.352 2.178 1.936 2.178 1.133 0 1.452-.187 1.771-1.034h.055V109h.825Zm2.248.759h1.496v3.212c0 1.507.319 1.837 1.782 1.837.396 0 .638-.022 1.364-.121v-.803c-.693.077-.913.099-1.177.099-.913 0-1.111-.187-1.111-1.056v-3.168h2.046v-.759h-2.035v-1.65l-.847.363v1.287h-1.298Zm16.035 7.623h.825v-13.2h-.825ZM63 105.502h6.6v-.825H63Zm7.407 2.2c0 .143.132.253.319.165l5.313-2.541c.22-.099.22-.308 0-.418l-5.313-2.541c-.165-.088-.319 0-.319.165Zm9.486 3.982h.825v-13.2h-.825Zm14.011-3.52h.792v-2.189h1.98v-.77h-1.98v-2.123h-.792v2.123h-1.98v.77h1.98Zm13.989 3.52h.825v-13.2h-.825Zm4.107-6.182h6.6v-.825H112Zm7.407 2.2c0 .143.132.253.319.165l5.313-2.541c.22-.099.22-.308 0-.418l-5.313-2.541c-.165-.088-.319 0-.319.165Zm9.486 3.982h.825v-13.2h-.825Zm16.167-4.444c-.143.847-.418 1.034-1.496 1.034-1.353 0-1.65-.55-1.65-3.025 0-2.464.297-3.003 1.65-3.003 1.012 0 1.276.198 1.43 1.089h.902c-.143-1.573-.561-1.925-2.332-1.925-2.002 0-2.563.825-2.563 3.861 0 3.146.462 3.839 2.563 3.839 1.826 0 2.266-.341 2.398-1.87Zm5.24 1.87c2.013 0 2.453-.539 2.453-2.97 0-2.42-.44-2.948-2.453-2.948-2.024 0-2.464.528-2.464 2.948 0 2.431.44 2.97 2.464 2.97m0-.825c-1.298 0-1.584-.385-1.584-2.145 0-1.738.286-2.123 1.584-2.123 1.287 0 1.573.385 1.573 2.123 0 1.76-.286 2.145-1.573 2.145m4.239.715h.847v-2.915c0-1.628.165-2.079.803-2.079.572 0 .737.352.726 1.617l-.022 3.377h.858v-2.915c0-1.628.176-2.079.792-2.079.55 0 .693.352.693 1.617V109h.847v-3.377c0-1.914-.264-2.431-1.276-2.431-.605 0-.847.187-1.1.869h-.055c-.143-.682-.374-.869-1.078-.869s-.957.187-1.21.869h-.055v-.759h-.77Zm7.451 2.365h.858v-2.992h.055c.231.605.495.737 1.496.737 1.936 0 2.365-.528 2.365-2.959s-.429-2.959-2.398-2.959c-1.012 0-1.287.132-1.518.737h-.055v-.627h-.803Zm2.354-3.08c-1.265 0-1.54-.385-1.54-2.134s.275-2.134 1.54-2.134c1.276 0 1.562.385 1.562 2.156 0 1.727-.286 2.112-1.562 2.112m5.592.715h.847v-2.277c0-2.134.407-2.607 2.244-2.607.253 0 .517.011.814.077v-.847c-.462-.055-.748-.066-1.353-.055-1.177.011-1.254.066-1.837 1.21h-.055l.099-1.199h-.759Zm9.805-1.485c-.209.627-.451.77-1.331.77-1.309 0-1.606-.308-1.65-1.716h3.971c.033-2.772-.407-3.377-2.442-3.377-1.936 0-2.365.528-2.365 2.948 0 2.431.451 2.97 2.519 2.97 1.54 0 1.936-.286 2.178-1.595Zm-2.97-1.738c.033-1.441.319-1.76 1.562-1.76 1.221 0 1.507.319 1.551 1.76Zm6.208 1.595c0 1.43.418 1.738 2.321 1.738s2.321-.286 2.321-1.606c0-1.265-.407-1.584-2.244-1.848-1.188-.176-1.452-.33-1.452-.902 0-.605.253-.737 1.375-.737 1.023 0 1.265.121 1.331.682h.869c-.066-1.232-.462-1.507-2.211-1.507-1.826 0-2.233.275-2.233 1.529 0 1.199.385 1.529 2.123 1.738 1.276.154 1.562.341 1.562 1.012s-.253.814-1.397.814c-1.166 0-1.441-.165-1.485-.913Zm7 0c0 1.43.418 1.738 2.321 1.738s2.321-.286 2.321-1.606c0-1.265-.407-1.584-2.244-1.848-1.188-.176-1.452-.33-1.452-.902 0-.605.253-.737 1.375-.737 1.023 0 1.265.121 1.331.682h.869c-.066-1.232-.462-1.507-2.211-1.507-1.826 0-2.233.275-2.233 1.529 0 1.199.385 1.529 2.123 1.738 1.276.154 1.562.341 1.562 1.012s-.253.814-1.397.814c-1.166 0-1.441-.165-1.485-.913Zm9.321 1.738c2.013 0 2.453-.539 2.453-2.97 0-2.42-.44-2.948-2.453-2.948-2.024 0-2.464.528-2.464 2.948 0 2.431.44 2.97 2.464 2.97m0-.825c-1.298 0-1.584-.385-1.584-2.145 0-1.738.286-2.123 1.584-2.123 1.287 0 1.573.385 1.573 2.123 0 1.76-.286 2.145-1.573 2.145m5.636.715h.847v-2.277c0-2.134.407-2.607 2.244-2.607.253 0 .517.011.814.077v-.847c-.462-.055-.748-.066-1.353-.055-1.177.011-1.254.066-1.837 1.21h-.055l.099-1.199h-.759Zm14.957 2.684h.825v-13.2h-.825Zm4.107-6.182h6.6v-.825H224Zm7.407 2.2c0 .143.132.253.319.165l5.313-2.541c.22-.099.22-.308 0-.418l-5.313-2.541c-.165-.088-.319 0-.319.165Zm9.486 3.982h.825v-13.2h-.825ZM252.44 109h.891l.539-1.87h2.86l.55 1.87h.891l-2.145-7.48h-1.441Zm1.672-2.706 1.133-3.971h.121l1.133 3.971Zm5.889 2.706h.88v-2.915c0-1.683.286-2.046 1.562-2.046 1.034 0 1.265.242 1.265 1.331V109h.88v-3.63c0-1.782-.352-2.178-1.936-2.178-1.133 0-1.452.187-1.771 1.034h-.055v-.924h-.825Zm6.857-4.939h1.496v3.212c0 1.507.319 1.837 1.782 1.837.396 0 .638-.022 1.364-.121v-.803c-.693.077-.913.099-1.177.099-.913 0-1.111-.187-1.111-1.056v-3.168h2.046v-.759h-2.035v-1.65l-.847.363v1.287h-1.298Zm8.947-1.925h1.21v-1.21h-1.21ZM274.243 109h4.543v-.781h-1.793v-4.917h-2.64v.781h1.793v4.136h-1.903Zm7.066-2.926h3.982v-.902h-3.982ZM291.686 109h.792v-3.729c0-1.705-.407-2.079-2.233-2.079-1.639 0-2.002.297-2.002 1.639h.847c.022-.704.242-.858 1.188-.858 1.155 0 1.408.231 1.408 1.298v.242h-1.089c-2.09 0-2.552.352-2.552 1.947 0 1.353.341 1.65 1.881 1.65 1.133 0 1.441-.154 1.705-.847h.055Zm-.011-2.717c0 1.661-.297 2.024-1.639 2.024-.924 0-1.133-.176-1.133-.957 0-.88.264-1.067 1.474-1.067Zm3.37 2.717h4.675v-.781h-1.837v-7.227h-2.728v.781h1.87v6.446h-1.98Zm8.76-6.864h1.21v-1.21h-1.21ZM302.243 109h4.543v-.781h-1.793v-4.917h-2.64v.781h1.793v4.136h-1.903Zm10.443 0h.792v-3.729c0-1.705-.407-2.079-2.233-2.079-1.639 0-2.002.297-2.002 1.639h.847c.022-.704.242-.858 1.188-.858 1.155 0 1.408.231 1.408 1.298v.242h-1.089c-2.09 0-2.552.352-2.552 1.947 0 1.353.341 1.65 1.881 1.65 1.133 0 1.441-.154 1.705-.847h.055Zm-.011-2.717c0 1.661-.297 2.024-1.639 2.024-.924 0-1.133-.176-1.133-.957 0-.88.264-1.067 1.474-1.067Zm3.304 1.089c0 1.43.418 1.738 2.321 1.738s2.321-.286 2.321-1.606c0-1.265-.407-1.584-2.244-1.848-1.188-.176-1.452-.33-1.452-.902 0-.605.253-.737 1.375-.737 1.023 0 1.265.121 1.331.682h.869c-.066-1.232-.462-1.507-2.211-1.507-1.826 0-2.233.275-2.233 1.529 0 1.199.385 1.529 2.123 1.738 1.276.154 1.562.341 1.562 1.012s-.253.814-1.397.814c-1.166 0-1.441-.165-1.485-.913Zm8.826-5.236h1.21v-1.21h-1.21ZM323.243 109h4.543v-.781h-1.793v-4.917h-2.64v.781h1.793v4.136h-1.903Zm6.758 0h.88v-2.915c0-1.683.286-2.046 1.562-2.046 1.034 0 1.265.242 1.265 1.331V109h.88v-3.63c0-1.782-.352-2.178-1.936-2.178-1.133 0-1.452.187-1.771 1.034h-.055v-.924h-.825Zm7.088.682c.088 1.375.484 1.683 2.2 1.683 1.947 0 2.376-.407 2.387-2.255v-5.808h-.847v.748h-.055c-.264-.704-.55-.858-1.584-.858-1.892 0-2.31.528-2.31 2.915 0 2.376.418 2.893 2.299 2.893 1.045 0 1.331-.154 1.606-.869h.055v.858c-.022 1.309-.308 1.595-1.606 1.595-1.023 0-1.243-.165-1.243-.902Zm2.211-1.474c-1.265 0-1.54-.374-1.54-2.101 0-1.738.275-2.123 1.54-2.123s1.54.385 1.54 2.123c0 1.727-.275 2.101-1.54 2.101m11.976.792h.902v-3.322h3.146v-.836h-3.146v-2.486h3.575v-.836h-4.477Zm8.529-6.864h1.21v-1.21h-1.21ZM358.243 109h4.543v-.781h-1.793v-4.917h-2.64v.781h1.793v4.136h-1.903Zm6.802 0h4.675v-.781h-1.837v-7.227h-2.728v.781h1.87v6.446h-1.98Zm6.813-4.939h1.496v3.212c0 1.507.319 1.837 1.782 1.837.396 0 .638-.022 1.364-.121v-.803c-.693.077-.913.099-1.177.099-.913 0-1.111-.187-1.111-1.056v-3.168h2.046v-.759h-2.035v-1.65l-.847.363v1.287h-1.298Zm10.883 3.454c-.209.627-.451.77-1.331.77-1.309 0-1.606-.308-1.65-1.716h3.971c.033-2.772-.407-3.377-2.442-3.377-1.936 0-2.365.528-2.365 2.948 0 2.431.451 2.97 2.519 2.97 1.54 0 1.936-.286 2.178-1.595Zm-2.97-1.738c.033-1.441.319-1.76 1.562-1.76 1.221 0 1.507.319 1.551 1.76Zm7.165 3.223h.847v-2.277c0-2.134.407-2.607 2.244-2.607.253 0 .517.011.814.077v-.847a8.5 8.5 0 0 0-1.353-.055c-1.177.011-1.254.066-1.837 1.21h-.055l.099-1.199h-.759Zm14.957 2.684h.825v-13.2h-.825Zm4.107-6.182h6.6v-.825H406Zm7.407 2.2c0 .143.132.253.319.165l5.313-2.541c.22-.099.22-.308 0-.418l-5.313-2.541c-.165-.088-.319 0-.319.165Zm9.486 3.982h.825v-13.2h-.825Zm12.02-2.684c.781.066 1.034.077 1.386.077 2.915 0 3.553-.671 3.553-3.74 0-2.86-.781-3.641-2.981-3.839-.814-.077-1.254-.044-1.958.022Zm.902-6.655c.341-.022.748 0 1.056.044 1.694.242 2.068.781 2.068 2.992 0 2.255-.319 2.761-1.76 2.86-.33.022-.605.022-1.364-.022Zm9.926 5.17c-.209.627-.451.77-1.331.77-1.309 0-1.606-.308-1.65-1.716h3.971c.033-2.772-.407-3.377-2.442-3.377-1.936 0-2.365.528-2.365 2.948 0 2.431.451 2.97 2.519 2.97 1.54 0 1.936-.286 2.178-1.595Zm-2.97-1.738c.033-1.441.319-1.76 1.562-1.76 1.221 0 1.507.319 1.551 1.76Zm6.274 3.223h4.675v-.781h-1.837v-7.227h-2.728v.781h1.87v6.446h-1.98Zm10.641 0h.792v-3.729c0-1.705-.407-2.079-2.233-2.079-1.639 0-2.002.297-2.002 1.639h.847c.022-.704.242-.858 1.188-.858 1.155 0 1.408.231 1.408 1.298v.242h-1.089c-2.09 0-2.552.352-2.552 1.947 0 1.353.341 1.65 1.881 1.65 1.133 0 1.441-.154 1.705-.847h.055Zm-.011-2.717c0 1.661-.297 2.024-1.639 2.024-.924 0-1.133-.176-1.133-.957 0-.88.264-1.067 1.474-1.067Zm4.448 5.126h.88l2.838-8.107h-.902l-1.584 4.565h-.033l-1.639-4.565h-.935l1.914 5.28h.462ZM477.309 109h4.576v-.836h-3.674v-6.644h-.902Zm8.496-6.864h1.21v-1.21h-1.21ZM484.243 109h4.543v-.781h-1.793v-4.917h-2.64v.781h1.793v4.136h-1.903Zm6.758 0h.88v-2.915c0-1.683.286-2.046 1.562-2.046 1.034 0 1.265.242 1.265 1.331V109h.88v-3.63c0-1.782-.352-2.178-1.936-2.178-1.133 0-1.452.187-1.771 1.034h-.055v-.924h-.825Zm10.74-1.485c-.209.627-.451.77-1.331.77-1.309 0-1.606-.308-1.65-1.716h3.971c.033-2.772-.407-3.377-2.442-3.377-1.936 0-2.365.528-2.365 2.948 0 2.431.451 2.97 2.519 2.97 1.54 0 1.936-.286 2.178-1.595Zm-2.97-1.738c.033-1.441.319-1.76 1.562-1.76 1.221 0 1.507.319 1.551 1.76Zm17.432 3.762c-1.155-.132-1.551-.55-1.771-1.782a13.3 13.3 0 0 1-.176-2.178c0-.682.055-1.507.176-2.167.22-1.21.627-1.639 1.771-1.705l.011-.935c-1.221.033-2.211.253-2.629 2.354-.143.715-.209 1.606-.209 2.464 0 .935.077 1.837.198 2.497.297 1.628.946 2.365 2.64 2.387Zm2.809-.539h4.774v-.836h-3.861v-.121c1.936-1.716 2.464-2.244 2.992-2.871.583-.682.704-1.012.704-1.771 0-1.628-.429-1.991-2.365-1.991-1.859 0-2.299.341-2.398 1.892h.902c.077-.88.352-1.067 1.496-1.067 1.221 0 1.485.209 1.485 1.155 0 .539-.088.759-.473 1.243-.506.627-1.089 1.177-3.256 3.058Zm6.527 0h.847v-2.915c0-1.628.165-2.079.803-2.079.572 0 .737.352.726 1.617l-.022 3.377h.858v-2.915c0-1.628.176-2.079.792-2.079.55 0 .693.352.693 1.617V109h.847v-3.377c0-1.914-.264-2.431-1.276-2.431-.605 0-.847.187-1.1.869h-.055c-.143-.682-.374-.869-1.078-.869s-.957.187-1.21.869h-.055v-.759h-.77Zm7.44-1.628c0 1.43.418 1.738 2.321 1.738s2.321-.286 2.321-1.606c0-1.265-.407-1.584-2.244-1.848-1.188-.176-1.452-.33-1.452-.902 0-.605.253-.737 1.375-.737 1.023 0 1.265.121 1.331.682h.869c-.066-1.232-.462-1.507-2.211-1.507-1.826 0-2.233.275-2.233 1.529 0 1.199.385 1.529 2.123 1.738 1.276.154 1.562.341 1.562 1.012s-.253.814-1.397.814c-1.166 0-1.441-.165-1.485-.913Zm7.407 3.102c1.496-.022 2.244-.605 2.618-2.409.154-.748.22-1.617.22-2.464 0-.682-.055-1.628-.22-2.431-.363-1.793-1.1-2.354-2.618-2.398l.011.935c1.001.055 1.529.462 1.771 1.727.132.682.165 1.496.165 2.167 0 .77-.055 1.529-.165 2.134-.231 1.265-.682 1.683-1.771 1.804Zm15.507 1.21h.825v-13.2h-.825Zm4.107-6.182h6.6v-.825H560Zm7.407 2.2c0 .143.132.253.319.165l5.313-2.541c.22-.099.22-.308 0-.418l-5.313-2.541c-.165-.088-.319 0-.319.165Zm9.486 3.982h.825v-13.2h-.825ZM589.056 109h.88v-3.245h.979c1.221 0 1.529.187 1.727 1.067l.484 2.178h.99l-.572-2.178c-.264-.99-.473-1.232-1.155-1.342v-.066c1.122-.132 1.364-.462 1.364-1.87 0-1.628-.44-2.002-2.475-2.057-.517-.011-1.848 0-2.222.033Zm.88-4.059v-2.585c.539-.022.704-.033.88-.033 1.661 0 2.024.22 2.024 1.221 0 1.144-.209 1.397-1.166 1.397Zm9.805 2.574c-.209.627-.451.77-1.331.77-1.309 0-1.606-.308-1.65-1.716h3.971c.033-2.772-.407-3.377-2.442-3.377-1.936 0-2.365.528-2.365 2.948 0 2.431.451 2.97 2.519 2.97 1.54 0 1.936-.286 2.178-1.595Zm-2.97-1.738c.033-1.441.319-1.76 1.562-1.76 1.221 0 1.507.319 1.551 1.76Zm10.113 1.628c-.176.748-.407.913-1.276.913-1.342 0-1.639-.385-1.639-2.167s.286-2.167 1.606-2.167c.891 0 1.122.187 1.287 1.034h.88c-.077-1.496-.462-1.826-2.112-1.826-2.079 0-2.541.528-2.541 2.948 0 2.431.462 2.97 2.563 2.97 1.595 0 1.98-.308 2.09-1.705Zm5.416 1.705c2.013 0 2.453-.539 2.453-2.97 0-2.42-.44-2.948-2.453-2.948-2.024 0-2.464.528-2.464 2.948 0 2.431.44 2.97 2.464 2.97m0-.825c-1.298 0-1.584-.385-1.584-2.145 0-1.738.286-2.123 1.584-2.123 1.287 0 1.573.385 1.573 2.123 0 1.76-.286 2.145-1.573 2.145m4.701.715h.88v-2.915c0-1.683.286-2.046 1.562-2.046 1.034 0 1.265.242 1.265 1.331V109h.88v-3.63c0-1.782-.352-2.178-1.936-2.178-1.133 0-1.452.187-1.771 1.034h-.055v-.924h-.825Zm6.978-1.628c0 1.43.418 1.738 2.321 1.738s2.321-.286 2.321-1.606c0-1.265-.407-1.584-2.244-1.848-1.188-.176-1.452-.33-1.452-.902 0-.605.253-.737 1.375-.737 1.023 0 1.265.121 1.331.682h.869c-.066-1.232-.462-1.507-2.211-1.507-1.826 0-2.233.275-2.233 1.529 0 1.199.385 1.529 2.123 1.738 1.276.154 1.562.341 1.562 1.012s-.253.814-1.397.814c-1.166 0-1.441-.165-1.485-.913Zm6.879-3.311h1.496v3.212c0 1.507.319 1.837 1.782 1.837.396 0 .638-.022 1.364-.121v-.803c-.693.077-.913.099-1.177.099-.913 0-1.111-.187-1.111-1.056v-3.168h2.046v-.759h-2.035v-1.65l-.847.363v1.287h-1.298Zm8.078 4.939h.847v-2.277c0-2.134.407-2.607 2.244-2.607.253 0 .517.011.814.077v-.847c-.462-.055-.748-.066-1.353-.055-1.177.011-1.254.066-1.837 1.21h-.055l.099-1.199h-.759Zm10.674-5.698h-.88v2.915c0 1.683-.286 2.046-1.562 2.046-1.034 0-1.265-.242-1.265-1.331v-3.63h-.88v3.63c0 1.782.352 2.178 1.936 2.178 1.133 0 1.452-.187 1.771-1.034h.055V109h.825Zm6.274 4.103c-.176.748-.407.913-1.276.913-1.342 0-1.639-.385-1.639-2.167s.286-2.167 1.606-2.167c.891 0 1.122.187 1.287 1.034h.88c-.077-1.496-.462-1.826-2.112-1.826-2.079 0-2.541.528-2.541 2.948 0 2.431.462 2.97 2.563 2.97 1.595 0 1.98-.308 2.09-1.705Zm2.974-3.344h1.496v3.212c0 1.507.319 1.837 1.782 1.837.396 0 .638-.022 1.364-.121v-.803c-.693.077-.913.099-1.177.099-.913 0-1.111-.187-1.111-1.056v-3.168h2.046v-.759h-2.035v-1.65l-.847.363v1.287h-1.298Zm8.947-1.925h1.21v-1.21h-1.21ZM666.243 109h4.543v-.781h-1.793v-4.917h-2.64v.781h1.793v4.136h-1.903Zm9.057.11c2.013 0 2.453-.539 2.453-2.97 0-2.42-.44-2.948-2.453-2.948-2.024 0-2.464.528-2.464 2.948 0 2.431.44 2.97 2.464 2.97m0-.825c-1.298 0-1.584-.385-1.584-2.145 0-1.738.286-2.123 1.584-2.123 1.287 0 1.573.385 1.573 2.123 0 1.76-.286 2.145-1.573 2.145m4.701.715h.88v-2.915c0-1.683.286-2.046 1.562-2.046 1.034 0 1.265.242 1.265 1.331V109h.88v-3.63c0-1.782-.352-2.178-1.936-2.178-1.133 0-1.452.187-1.771 1.034h-.055v-.924h-.825Zm14.275 0h.902v-3.322h3.146v-.836h-3.146v-2.486h3.575v-.836h-4.477Zm8.529-6.864h1.21v-1.21h-1.21ZM701.243 109h4.543v-.781h-1.793v-4.917h-2.64v.781h1.793v4.136h-1.903Zm6.802 0h4.675v-.781h-1.837v-7.227h-2.728v.781h1.87v6.446h-1.98Zm6.813-4.939h1.496v3.212c0 1.507.319 1.837 1.782 1.837.396 0 .638-.022 1.364-.121v-.803c-.693.077-.913.099-1.177.099-.913 0-1.111-.187-1.111-1.056v-3.168h2.046v-.759h-2.035v-1.65l-.847.363v1.287h-1.298Zm10.883 3.454c-.209.627-.451.77-1.331.77-1.309 0-1.606-.308-1.65-1.716h3.971c.033-2.772-.407-3.377-2.442-3.377-1.936 0-2.365.528-2.365 2.948 0 2.431.451 2.97 2.519 2.97 1.54 0 1.936-.286 2.178-1.595Zm-2.97-1.738c.033-1.441.319-1.76 1.562-1.76 1.221 0 1.507.319 1.551 1.76Zm7.165 3.223h.847v-2.277c0-2.134.407-2.607 2.244-2.607.253 0 .517.011.814.077v-.847c-.462-.055-.748-.066-1.353-.055-1.177.011-1.254.066-1.837 1.21h-.055l.099-1.199h-.759Zm14.957 2.684h.825v-13.2h-.825Zm4.107-6.182h6.6v-.825H749Zm9.893 6.182h.825v-13.2h-.825ZM771.441 109h4.345v-.825h-3.443v-2.651h2.805v-.825h-2.805v-2.354h3.223v-.825h-4.125Zm6.351 0h1.045l1.441-2.233h.033l1.452 2.233h1.045l-1.925-2.871 1.892-2.827h-1.056l-1.386 2.233h-.022l-1.386-2.233h-1.045l1.848 2.827Zm7.198 2.365h.858v-2.992h.055c.231.605.495.737 1.496.737 1.936 0 2.365-.528 2.365-2.959s-.429-2.959-2.398-2.959c-1.012 0-1.287.132-1.518.737h-.055v-.627h-.803Zm2.354-3.08c-1.265 0-1.54-.385-1.54-2.134s.275-2.134 1.54-2.134c1.276 0 1.562.385 1.562 2.156 0 1.727-.286 2.112-1.562 2.112m8.342.715h.792v-3.729c0-1.705-.407-2.079-2.233-2.079-1.639 0-2.002.297-2.002 1.639h.847c.022-.704.242-.858 1.188-.858 1.155 0 1.408.231 1.408 1.298v.242h-1.089c-2.09 0-2.552.352-2.552 1.947 0 1.353.341 1.65 1.881 1.65 1.133 0 1.441-.154 1.705-.847h.055Zm-.011-2.717c0 1.661-.297 2.024-1.639 2.024-.924 0-1.133-.176-1.133-.957 0-.88.264-1.067 1.474-1.067Zm3.326 2.717h.88v-2.915c0-1.683.286-2.046 1.562-2.046 1.034 0 1.265.242 1.265 1.331V109h.88v-3.63c0-1.782-.352-2.178-1.936-2.178-1.133 0-1.452.187-1.771 1.034h-.055v-.924h-.825Zm10.784 0h.803l-.011-8.074h-.858l.011 3.003h-.055c-.231-.605-.495-.737-1.485-.737-1.947 0-2.376.528-2.376 2.959s.429 2.959 2.387 2.959c1.012 0 1.287-.132 1.529-.737h.055Zm-1.551-.693c-1.276 0-1.562-.385-1.562-2.156 0-1.782.286-2.167 1.562-2.167 1.265 0 1.54.385 1.54 2.167 0 1.771-.275 2.156-1.54 2.156m8.507-.792c-.209.627-.451.77-1.331.77-1.309 0-1.606-.308-1.65-1.716h3.971c.033-2.772-.407-3.377-2.442-3.377-1.936 0-2.365.528-2.365 2.948 0 2.431.451 2.97 2.519 2.97 1.54 0 1.936-.286 2.178-1.595Zm-2.97-1.738c.033-1.441.319-1.76 1.562-1.76 1.221 0 1.507.319 1.551 1.76Zm7.165 3.223h.847v-2.277c0-2.134.407-2.607 2.244-2.607.253 0 .517.011.814.077v-.847c-.462-.055-.748-.066-1.353-.055-1.177.011-1.254.066-1.837 1.21h-.055l.099-1.199h-.759Zm14.957 2.684h.825v-13.2h-.825Zm4.107-6.182h6.6v-.825H840Zm7.407 2.2c0 .143.132.253.319.165l5.313-2.541c.22-.099.22-.308 0-.418l-5.313-2.541c-.165-.088-.319 0-.319.165Zm9.486 3.982h.825v-13.2h-.825Zm14.011-3.52h.792v-2.189h1.98v-.77h-1.98v-2.123h-.792v2.123h-1.98v.77h1.98Zm13.989 3.52h.825v-13.2h-.825ZM7 91.502h6.6v-.825H7Zm7 0h6.6v-.825H14Zm7 0h6.6v-.825H21Zm7 0h6.6v-.825H28Zm7 0h6.6v-.825H35Zm7 0h6.6v-.825H42Zm7 0h6.6v-.825H49Zm7 0h2.893v6.182h.825v-7.007H56Zm23.893 6.182h.825v-6.193H83.6v-.825h-3.707ZM84 91.502h6.6v-.825H84Zm7 0h6.6v-.825H91Zm7 0h6.6v-.825H98Zm7 0h2.893v6.182h.825v-7.007H105Zm23.893 6.182h.825v-6.193h2.882v-.825h-3.707ZM133 91.502h6.6v-.825H133Zm7 0h6.6v-.825H140Zm7 0h6.6v-.825H147Zm7 0h6.6v-.825H154Zm7 0h6.6v-.825H161Zm7 0h6.6v-.825H168Zm7 0h6.6v-.825H175Zm7 0h6.6v-.825H182Zm7 0h6.6v-.825H189Zm7 0h6.6v-.825H196Zm7 0h6.6v-.825H203Zm7 0h6.6v-.825H210Zm7 0h2.893v6.182h.825v-7.007H217Zm23.893 6.182h.825v-6.193h2.882v-.825h-3.707ZM245 91.502h6.6v-.825H245Zm7 0h6.6v-.825H252Zm7 0h6.6v-.825H259Zm7 0h6.6v-.825H266Zm7 0h6.6v-.825H273Zm7 0h6.6v-.825H280Zm7 0h6.6v-.825H287Zm7 0h6.6v-.825H294Zm7 0h6.6v-.825H301Zm7 0h6.6v-.825H308Zm7 0h6.6v-.825H315Zm7 0h6.6v-.825H322Zm7 0h6.6v-.825H329Zm7 0h6.6v-.825H336Zm7 0h6.6v-.825H343Zm7 0h6.6v-.825H350Zm7 0h6.6v-.825H357Zm7 0h6.6v-.825H364Zm7 0h6.6v-.825H371Zm7 0h6.6v-.825H378Zm7 0h6.6v-.825H385Zm7 0h6.6v-.825H392Zm7 0h2.893v6.182h.825v-7.007H399Zm23.893 6.182h.825v-6.193h2.882v-.825h-3.707ZM427 91.502h6.6v-.825H427Zm7 0h6.6v-.825H434Zm7 0h6.6v-.825H441Zm7 0h6.6v-.825H448Zm7 0h6.6v-.825H455Zm7 0h6.6v-.825H462Zm7 0h6.6v-.825H469Zm7 0h6.6v-.825H476Zm7 0h6.6v-.825H483Zm7 0h6.6v-.825H490Zm7 0h6.6v-.825H497Zm7 0h6.6v-.825H504Zm7 0h6.6v-.825H511Zm7 0h6.6v-.825H518Zm7 0h6.6v-.825H525Zm7 0h6.6v-.825H532Zm7 0h6.6v-.825H539Zm7 0h6.6v-.825H546Zm7 0h2.893v6.182h.825v-7.007H553Zm23.893 6.182h.825v-6.193h2.882v-.825h-3.707ZM581 91.502h6.6v-.825H581Zm7 0h6.6v-.825H588Zm7 0h6.6v-.825H595Zm7 0h6.6v-.825H602Zm7 0h6.6v-.825H609Zm7 0h6.6v-.825H616Zm7 0h6.6v-.825H623Zm7 0h6.6v-.825H630Zm7 0h6.6v-.825H637Zm7 0h6.6v-.825H644Zm7 0h6.6v-.825H651Zm7 0h6.6v-.825H658Zm7 0h6.6v-.825H665Zm7 0h6.6v-.825H672Zm7 0h6.6v-.825H679Zm7 0h6.6v-.825H686Zm7 0h6.6v-.825H693Zm7 0h6.6v-.825H700Zm7 0h6.6v-.825H707Zm7 0h6.6v-.825H714Zm7 0h6.6v-.825H721Zm7 0h6.6v-.825H728Zm7 0h6.6v-.825H735Zm7 0h2.893v6.182h.825v-7.007H742Zm16.893 6.182h.825v-6.193h2.882v-.825h-3.707ZM763 91.502h6.6v-.825H763Zm7 0h6.6v-.825H770Zm7 0h6.6v-.825H777Zm7 0h6.6v-.825H784Zm7 0h6.6v-.825H791Zm7 0h6.6v-.825H798Zm7 0h6.6v-.825H805Zm7 0h6.6v-.825H812Zm7 0h6.6v-.825H819Zm7 0h6.6v-.825H826Zm7 0h2.893v6.182h.825v-7.007H833Zm23.893 6.182h.825v-6.193h2.882v-.825h-3.707ZM861 91.502h6.6v-.825H861Zm7 0h6.6v-.825H868Zm7 0h6.6v-.825H875Zm7 0h2.893v6.182h.825v-7.007H882ZM30.893 13.684h.825V7.491H34.6v-.825h-3.707Zm0 14h.825v-13.2h-.825Zm0 14h.825v-13.2h-.825Zm0 14h.825v-13.2h-.825Zm0 14h.825v-13.2h-.825Zm0 14h.825v-13.2h-.825ZM71.276 81h.902v-3.322h3.146v-.836h-3.146v-2.486h3.575v-.836h-4.477Zm10.465-1.485c-.209.627-.451.77-1.331.77-1.309 0-1.606-.308-1.65-1.716h3.971c.033-2.772-.407-3.377-2.442-3.377-1.936 0-2.365.528-2.365 2.948 0 2.431.451 2.97 2.519 2.97 1.54 0 1.936-.286 2.178-1.595Zm-2.97-1.738c.033-1.441.319-1.76 1.562-1.76 1.221 0 1.507.319 1.551 1.76Zm9.97 1.738c-.209.627-.451.77-1.331.77-1.309 0-1.606-.308-1.65-1.716h3.971c.033-2.772-.407-3.377-2.442-3.377-1.936 0-2.365.528-2.365 2.948 0 2.431.451 2.97 2.519 2.97 1.54 0 1.936-.286 2.178-1.595Zm-2.97-1.738c.033-1.441.319-1.76 1.562-1.76 1.221 0 1.507.319 1.551 1.76ZM95.785 81h.803l-.011-8.074h-.858l.011 3.003h-.055c-.231-.605-.495-.737-1.485-.737-1.947 0-2.376.528-2.376 2.959s.429 2.959 2.387 2.959c1.012 0 1.287-.132 1.529-.737h.055Zm-1.551-.693c-1.276 0-1.562-.385-1.562-2.156 0-1.782.286-2.167 1.562-2.167 1.265 0 1.54.385 1.54 2.167 0 1.771-.275 2.156-1.54 2.156m4.778.693h.803v-.627h.055c.242.605.539.737 1.672.737 1.837 0 2.244-.528 2.244-2.937 0-2.442-.407-2.981-2.266-2.981-1.078 0-1.364.132-1.595.737h-.055l.011-3.003h-.858Zm2.321-.693c-1.232 0-1.507-.385-1.507-2.134 0-1.793.264-2.189 1.496-2.189 1.32 0 1.606.396 1.606 2.189 0 1.749-.286 2.134-1.595 2.134m8.353.693h.792v-3.729c0-1.705-.407-2.079-2.233-2.079-1.639 0-2.002.297-2.002 1.639h.847c.022-.704.242-.858 1.188-.858 1.155 0 1.408.231 1.408 1.298v.242h-1.089c-2.09 0-2.552.352-2.552 1.947 0 1.353.341 1.65 1.881 1.65 1.133 0 1.441-.154 1.705-.847h.055Zm-.011-2.717c0 1.661-.297 2.024-1.639 2.024-.924 0-1.133-.176-1.133-.957 0-.88.264-1.067 1.474-1.067Zm7.209 1.122c-.176.748-.407.913-1.276.913-1.342 0-1.639-.385-1.639-2.167s.286-2.167 1.606-2.167c.891 0 1.122.187 1.287 1.034h.88c-.077-1.496-.462-1.826-2.112-1.826-2.079 0-2.541.528-2.541 2.948 0 2.431.462 2.97 2.563 2.97 1.595 0 1.98-.308 2.09-1.705ZM120.408 81h.88v-3.069L123.972 81h1.21l-2.827-3.179 2.464-2.519h-1.166l-2.365 2.464v-4.774h-.88Zm372.683-1.265c.11.22.319.22.418 0l2.541-5.313c.088-.187-.022-.319-.165-.319h-5.17c-.165 0-.253.154-.165.319Zm378 0c.11.22.319.22.418 0l2.541-5.313c.088-.187-.022-.319-.165-.319h-5.17c-.165 0-.253.154-.165.319ZM401.893 27.684h.825v-6.193h2.882v-.825h-3.707Zm0 14h.825v-13.2h-.825Zm0 7.818h3.707v-.825h-2.882v-6.193h-.825Zm91 20.182h.825v-13.2h-.825Zm378 0h.825v-13.2h-.825ZM406 49.502h6.6v-.825H406Zm7 0h6.6v-.825H413Zm7 0h6.6v-.825H420Zm7 0h6.6v-.825H427Zm7 0h6.6v-.825H434Zm7 0h3.718v-7.018h-.825v6.193H441Zm23.893 0h3.707v-.825h-2.882v-6.193h-.825Zm4.107 0h6.6v-.825H469Zm7 0h6.6v-.825H476Zm7 0h6.6v-.825H483Zm7 0h6.6v-.825H490Zm7 0h6.6v-.825H497Zm7 0h6.6v-.825H504Zm7 0h6.6v-.825H511Zm7 0h3.718v-7.018h-.825v6.193H518Zm352.893 6.182h.825v-13.2h-.825ZM414.309 39h4.576v-.836h-3.674V31.52h-.902Zm6.967 0h.902v-3.322h3.146v-.836h-3.146v-2.486h3.575v-.836h-4.477Zm9.024.11c2.134 0 2.607-.693 2.607-3.85s-.473-3.85-2.607-3.85c-2.145 0-2.618.693-2.618 3.85s.473 3.85 2.618 3.85m0-.836c-1.397 0-1.705-.539-1.705-3.014s.308-3.014 1.705-3.014c1.386 0 1.694.539 1.694 3.014s-.308 3.014-1.694 3.014m13.593 3.41h.825v-13.2h-.825ZM448 35.502h6.6v-.825H448Zm7.407 2.2c0 .143.132.253.319.165l5.313-2.541c.22-.099.22-.308 0-.418l-5.313-2.541c-.165-.088-.319 0-.319.165Zm9.486 3.982h.825v-13.2h-.825Zm16.167-4.444c-.143.847-.418 1.034-1.496 1.034-1.353 0-1.65-.55-1.65-3.025 0-2.464.297-3.003 1.65-3.003 1.012 0 1.276.198 1.43 1.089h.902c-.143-1.573-.561-1.925-2.332-1.925-2.002 0-2.563.825-2.563 3.861 0 3.146.462 3.839 2.563 3.839 1.826 0 2.266-.341 2.398-1.87Zm2.985 1.76h4.675v-.781h-1.837v-7.227h-2.728v.781h1.87v6.446h-1.98Zm9.255.11c2.013 0 2.453-.539 2.453-2.97 0-2.42-.44-2.948-2.453-2.948-2.024 0-2.464.528-2.464 2.948 0 2.431.44 2.97 2.464 2.97m0-.825c-1.298 0-1.584-.385-1.584-2.145 0-1.738.286-2.123 1.584-2.123 1.287 0 1.573.385 1.573 2.123 0 1.76-.286 2.145-1.573 2.145m8.584-.88c-.176.748-.407.913-1.276.913-1.342 0-1.639-.385-1.639-2.167s.286-2.167 1.606-2.167c.891 0 1.122.187 1.287 1.034h.88c-.077-1.496-.462-1.826-2.112-1.826-2.079 0-2.541.528-2.541 2.948 0 2.431.462 2.97 2.563 2.97 1.595 0 1.98-.308 2.09-1.705ZM505.408 39h.88v-3.069L508.972 39h1.21l-2.827-3.179 2.464-2.519h-1.166l-2.365 2.464v-4.774h-.88Zm15.485 2.684h.825v-13.2h-.825Zm350 0h.825v-13.2h-.825ZM406 21.502h6.6v-.825H406Zm7 0h6.6v-.825H413Zm7 0h6.6v-.825H420Zm7 0h6.6v-.825H427Zm7 0h6.6v-.825H434Zm7 0h2.893v6.182h.825v-7.007H441Zm23.893 6.182h.825v-6.193h2.882v-.825h-3.707ZM469 21.502h6.6v-.825H469Zm7 0h6.6v-.825H476Zm7 0h6.6v-.825H483Zm7 0h6.6v-.825H490Zm7 0h6.6v-.825H497Zm7 0h6.6v-.825H504Zm7 0h6.6v-.825H511Zm7 0h2.893v6.182h.825v-7.007H518Zm352.893 6.182h.825v-13.2h-.825ZM35 7.502h6.6v-.825H35Zm7 0h6.6v-.825H42Zm7 0h6.6v-.825H49Zm7 0h6.6v-.825H56Zm7 0h6.6v-.825H63Zm7 0h6.6v-.825H70Zm7 0h6.6v-.825H77Zm7 0h6.6v-.825H84Zm7 0h6.6v-.825H91Zm7 0h6.6v-.825H98Zm7 0h6.6v-.825H105Zm7 0h6.6v-.825H112Zm7 0h6.6v-.825H119Zm7 0h6.6v-.825H126Zm7 0h6.6v-.825H133Zm7 0h6.6v-.825H140Zm7 0h6.6v-.825H147Zm7 0h6.6v-.825H154Zm7 0h6.6v-.825H161Zm7 0h6.6v-.825H168Zm7 0h6.6v-.825H175Zm7 0h6.6v-.825H182Zm7 0h6.6v-.825H189Zm7 0h6.6v-.825H196Zm7 0h6.6v-.825H203Zm7 0h6.6v-.825H210Zm7 0h6.6v-.825H217Zm7 0h6.6v-.825H224Zm7 0h6.6v-.825H231Zm7 0h6.6v-.825H238Zm7 0h6.6v-.825H245Zm7 0h6.6v-.825H252Zm7 0h6.6v-.825H259Zm7 0h6.6v-.825H266Zm7 0h6.6v-.825H273Zm7 0h6.6v-.825H280Zm7 0h6.6v-.825H287Zm7 0h6.6v-.825H294Zm7 0h6.6v-.825H301Zm7 0h6.6v-.825H308Zm7 0h6.6v-.825H315Zm7 0h6.6v-.825H322Zm7 0h6.6v-.825H329Zm7 0h6.6v-.825H336Zm7 0h6.6v-.825H343Zm7 0h6.6v-.825H350Zm7 0h6.6v-.825H357Zm7 0h6.6v-.825H364Zm7 0h6.6v-.825H371Zm7 0h6.6v-.825H378Zm7 0h6.6v-.825H385Zm7 0h6.6v-.825H392Zm7 0h6.6v-.825H399Zm7 0h6.6v-.825H406Zm7 0h6.6v-.825H413Zm7 0h6.6v-.825H420Zm7 0h6.6v-.825H427Zm7 0h6.6v-.825H434Zm7 0h6.6v-.825H441Zm7 0h6.6v-.825H448Zm7 0h6.6v-.825H455Zm7 0h6.6v-.825H462Zm7 0h6.6v-.825H469Zm7 0h6.6v-.825H476Zm7 0h6.6v-.825H483Zm7 0h6.6v-.825H490Zm7 0h6.6v-.825H497Zm7 0h6.6v-.825H504Zm7 0h6.6v-.825H511Zm7 0h6.6v-.825H518Zm7 0h6.6v-.825H525Zm7 0h6.6v-.825H532Zm7 0h6.6v-.825H539Zm7 0h6.6v-.825H546Zm7 0h6.6v-.825H553Zm7 0h6.6v-.825H560Zm7 0h6.6v-.825H567Zm7 0h6.6v-.825H574Zm7 0h6.6v-.825H581Zm7 0h6.6v-.825H588Zm7 0h6.6v-.825H595Zm7 0h6.6v-.825H602Zm7 0h6.6v-.825H609Zm7 0h6.6v-.825H616Zm7 0h6.6v-.825H623Zm7 0h6.6v-.825H630Zm7 0h6.6v-.825H637Zm7 0h6.6v-.825H644Zm7 0h6.6v-.825H651Zm7 0h6.6v-.825H658Zm7 0h6.6v-.825H665Zm7 0h6.6v-.825H672Zm7 0h6.6v-.825H679Zm7 0h6.6v-.825H686Zm7 0h6.6v-.825H693Zm7 0h6.6v-.825H700Zm7 0h6.6v-.825H707Zm7 0h6.6v-.825H714Zm7 0h6.6v-.825H721Zm7 0h6.6v-.825H728Zm7 0h6.6v-.825H735Zm7 0h6.6v-.825H742Zm7 0h6.6v-.825H749Zm7 0h6.6v-.825H756Zm7 0h6.6v-.825H763Zm7 0h6.6v-.825H770Zm7 0h6.6v-.825H777Zm7 0h6.6v-.825H784Zm7 0h6.6v-.825H791Zm7 0h6.6v-.825H798Zm7 0h6.6v-.825H805Zm7 0h6.6v-.825H812Zm7 0h6.6v-.825H819Zm7 0h6.6v-.825H826Zm7 0h6.6v-.825H833Zm7 0h6.6v-.825H840Zm7 0h6.6v-.825H847Zm7 0h6.6v-.825H854Zm7 0h6.6v-.825H861Zm7 0h2.893v6.182h.825V6.677H868Z"/></svg>