<svg xmlns="http://www.w3.org/2000/svg" version="1.1" width="554" height="239">
<path d="M 0.000000 7.502000 L 6.600000 7.502000 L 6.600000 6.677000 L 0.000000 6.677000 Z " fill="rgb(0, 0, 0)" fill-opacity="1.000000" />
<path d="M 2.893000 27.684000 L 3.718000 27.684000 L 3.718000 21.491000 L 6.600000 21.491000 L 6.600000 20.666000 L 2.893000 20.666000 Z " fill="rgb(0, 0, 0)" fill-opacity="1.000000" />
<path d="M 2.893000 41.684000 L 3.718000 41.684000 L 3.718000 28.484000 L 2.893000 28.484000 Z " fill="rgb(0, 0, 0)" fill-opacity="1.000000" />
<path d="M 2.893000 55.684000 L 3.718000 55.684000 L 3.718000 42.484000 L 2.893000 42.484000 Z " fill="rgb(0, 0, 0)" fill-opacity="1.000000" />
<path d="M 2.893000 69.684000 L 3.718000 69.684000 L 3.718000 56.484000 L 2.893000 56.484000 Z " fill="rgb(0, 0, 0)" fill-opacity="1.000000" />
<path d="M 2.893000 83.684000 L 3.718000 83.684000 L 3.718000 70.484000 L 2.893000 70.484000 Z " fill="rgb(0, 0, 0)" fill-opacity="1.000000" />
<path d="M 2.893000 97.684000 L 3.718000 97.684000 L 3.718000 84.484000 L 2.893000 84.484000 Z " fill="rgb(0, 0, 0)" fill-opacity="1.000000" />
<path d="M 2.893000 111.684000 L 3.718000 111.684000 L 3.718000 98.484000 L 2.893000 98.484000 Z " fill="rgb(0, 0, 0)" fill-opacity="1.000000" />
<path d="M 2.893000 125.684000 L 3.718000 125.684000 L 3.718000 112.484000 L 2.893000 112.484000 Z " fill="rgb(0, 0, 0)" fill-opacity="1.000000" />
<path d="M 2.893000 139.684000 L 3.718000 139.684000 L 3.718000 126.484000 L 2.893000 126.484000 Z " fill="rgb(0, 0, 0)" fill-opacity="1.000000" />
<path d="M 2.893000 153.684000 L 3.718000 153.684000 L 3.718000 140.484000 L 2.893000 140.484000 Z " fill="rgb(0, 0, 0)" fill-opacity="1.000000" />
<path d="M 2.893000 161.502000 L 6.600000 161.502000 L 6.600000 160.677000 L 3.718000 160.677000 L 3.718000 154.484000 L 2.893000 154.484000 Z " fill="rgb(0, 0, 0)" fill-opacity="1.000000" />
<path d="M 0.000000 175.502000 L 6.600000 175.502000 L 6.600000 174.677000 L 0.000000 174.677000 Z " fill="rgb(0, 0, 0)" fill-opacity="1.000000" />
<path d="M 163.893000 195.684000 L 164.718000 195.684000 L 164.718000 182.484000 L 163.893000 182.484000 Z " fill="rgb(0, 0, 0)" fill-opacity="1.000000" />
<path d="M 163.893000 209.684000 L 164.718000 209.684000 L 164.718000 196.484000 L 163.893000 196.484000 Z " fill="rgb(0, 0, 0)" fill-opacity="1.000000" />
<path d="M 163.893000 223.684000 L 164.718000 223.684000 L 164.718000 210.484000 L 163.893000 210.484000 Z " fill="rgb(0, 0, 0)" fill-opacity="1.000000" />
<path d="M 163.893000 231.502000 L 167.600000 231.502000 L 167.600000 230.677000 L 164.718000 230.677000 L 164.718000 224.484000 L 163.893000 224.484000 Z " fill="rgb(0, 0, 0)" fill-opacity="1.000000" />
<path d="M 168.000000 231.502000 L 174.600000 231.502000 L 174.600000 230.677000 L 168.000000 230.677000 Z " fill="rgb(0, 0, 0)" fill-opacity="1.000000" />
<path d="M 175.000000 231.502000 L 181.600000 231.502000 L 181.600000 230.677000 L 175.000000 230.677000 Z " fill="rgb(0, 0, 0)" fill-opacity="1.000000" />
<path d="M 182.000000 231.502000 L 188.600000 231.502000 L 188.600000 230.677000 L 182.000000 230.677000 Z " fill="rgb(0, 0, 0)" fill-opacity="1.000000" />
<path d="M 189.000000 231.502000 L 195.600000 231.502000 L 195.600000 230.677000 L 189.000000 230.677000 Z " fill="rgb(0, 0, 0)" fill-opacity="1.000000" />
<path d="M 196.000000 231.502000 L 202.600000 231.502000 L 202.600000 230.677000 L 196.000000 230.677000 Z " fill="rgb(0, 0, 0)" fill-opacity="1.000000" />
<path d="M 203.000000 231.502000 L 209.600000 231.502000 L 209.600000 230.677000 L 203.000000 230.677000 Z " fill="rgb(0, 0, 0)" fill-opacity="1.000000" />
<path d="M 210.000000 231.502000 L 216.600000 231.502000 L 216.600000 230.677000 L 210.000000 230.677000 Z " fill="rgb(0, 0, 0)" fill-opacity="1.000000" />
<path d="M 217.000000 231.502000 L 223.600000 231.502000 L 223.600000 230.677000 L 217.000000 230.677000 Z " fill="rgb(0, 0, 0)" fill-opacity="1.000000" />
<path d="M 224.000000 231.502000 L 230.600000 231.502000 L 230.600000 230.677000 L 224.000000 230.677000 Z " fill="rgb(0, 0, 0)" fill-opacity="1.000000" />
<path d="M 231.000000 231.502000 L 237.600000 231.502000 L 237.600000 230.677000 L 231.000000 230.677000 Z " fill="rgb(0, 0, 0)" fill-opacity="1.000000" />
<path d="M 238.000000 231.502000 L 244.600000 231.502000 L 244.600000 230.677000 L 238.000000 230.677000 Z " fill="rgb(0, 0, 0)" fill-opacity="1.000000" />
<path d="M 245.000000 231.502000 L 251.600000 231.502000 L 251.600000 230.677000 L 245.000000 230.677000 Z " fill="rgb(0, 0, 0)" fill-opacity="1.000000" />
<path d="M 252.000000 231.502000 L 258.600000 231.502000 L 258.600000 230.677000 L 252.000000 230.677000 Z " fill="rgb(0, 0, 0)" fill-opacity="1.000000" />
<path d="M 259.000000 231.502000 L 265.600000 231.502000 L 265.600000 230.677000 L 259.000000 230.677000 Z " fill="rgb(0, 0, 0)" fill-opacity="1.000000" />
<path d="M 266.000000 231.502000 L 272.600000 231.502000 L 272.600000 230.677000 L 266.000000 230.677000 Z " fill="rgb(0, 0, 0)" fill-opacity="1.000000" />
<path d="M 273.000000 231.502000 L 279.600000 231.502000 L 279.600000 230.677000 L 273.000000 230.677000 Z " fill="rgb(0, 0, 0)" fill-opacity="1.000000" />
<path d="M 280.000000 231.502000 L 286.600000 231.502000 L 286.600000 230.677000 L 280.000000 230.677000 Z " fill="rgb(0, 0, 0)" fill-opacity="1.000000" />
<path d="M 287.000000 231.502000 L 293.600000 231.502000 L 293.600000 230.677000 L 287.000000 230.677000 Z " fill="rgb(0, 0, 0)" fill-opacity="1.000000" />
<path d="M 294.000000 231.502000 L 300.600000 231.502000 L 300.600000 230.677000 L 294.000000 230.677000 Z " fill="rgb(0, 0, 0)" fill-opacity="1.000000" />
<path d="M 301.000000 231.502000 L 307.600000 231.502000 L 307.600000 230.677000 L 301.000000 230.677000 Z " fill="rgb(0, 0, 0)" fill-opacity="1.000000" />
<path d="M 308.000000 231.502000 L 314.600000 231.502000 L 314.600000 230.677000 L 308.000000 230.677000 Z " fill="rgb(0, 0, 0)" fill-opacity="1.000000" />
<path d="M 315.000000 231.502000 L 321.600000 231.502000 L 321.600000 230.677000 L 315.000000 230.677000 Z " fill="rgb(0, 0, 0)" fill-opacity="1.000000" />
<path d="M 322.000000 231.502000 L 328.600000 231.502000 L 328.600000 230.677000 L 322.000000 230.677000 Z " fill="rgb(0, 0, 0)" fill-opacity="1.000000" />
<path d="M 329.000000 231.502000 L 335.600000 231.502000 L 335.600000 230.677000 L 329.000000 230.677000 Z " fill="rgb(0, 0, 0)" fill-opacity="1.000000" />
<path d="M 336.000000 231.502000 L 342.600000 231.502000 L 342.600000 230.677000 L 336.000000 230.677000 Z " fill="rgb(0, 0, 0)" fill-opacity="1.000000" />
<path d="M 343.000000 231.502000 L 349.600000 231.502000 L 349.600000 230.677000 L 343.000000 230.677000 Z " fill="rgb(0, 0, 0)" fill-opacity="1.000000" />
<path d="M 350.000000 231.502000 L 356.600000 231.502000 L 356.600000 230.677000 L 350.000000 230.677000 Z " fill="rgb(0, 0, 0)" fill-opacity="1.000000" />
<path d="M 357.000000 231.502000 L 363.600000 231.502000 L 363.600000 230.677000 L 357.000000 230.677000 Z " fill="rgb(0, 0, 0)" fill-opacity="1.000000" />
<path d="M 364.000000 231.502000 L 370.600000 231.502000 L 370.600000 230.677000 L 364.000000 230.677000 Z " fill="rgb(0, 0, 0)" fill-opacity="1.000000" />
<path d="M 371.000000 231.502000 L 377.600000 231.502000 L 377.600000 230.677000 L 371.000000 230.677000 Z " fill="rgb(0, 0, 0)" fill-opacity="1.000000" />
<path d="M 378.000000 231.502000 L 384.600000 231.502000 L 384.600000 230.677000 L 378.000000 230.677000 Z " fill="rgb(0, 0, 0)" fill-opacity="1.000000" />
<path d="M 385.000000 231.502000 L 391.600000 231.502000 L 391.600000 230.677000 L 385.000000 230.677000 Z " fill="rgb(0, 0, 0)" fill-opacity="1.000000" />
<path d="M 392.000000 231.502000 L 398.600000 231.502000 L 398.600000 230.677000 L 392.000000 230.677000 Z " fill="rgb(0, 0, 0)" fill-opacity="1.000000" />
<path d="M 399.000000 231.502000 L 405.600000 231.502000 L 405.600000 230.677000 L 399.000000 230.677000 Z " fill="rgb(0, 0, 0)" fill-opacity="1.000000" />
<path d="M 406.000000 231.502000 L 412.600000 231.502000 L 412.600000 230.677000 L 406.000000 230.677000 Z " fill="rgb(0, 0, 0)" fill-opacity="1.000000" />
<path d="M 413.000000 231.502000 L 419.600000 231.502000 L 419.600000 230.677000 L 413.000000 230.677000 Z " fill="rgb(0, 0, 0)" fill-opacity="1.000000" />
<path d="M 420.000000 231.502000 L 426.600000 231.502000 L 426.600000 230.677000 L 420.000000 230.677000 Z " fill="rgb(0, 0, 0)" fill-opacity="1.000000" />
<path d="M 427.000000 231.502000 L 433.600000 231.502000 L 433.600000 230.677000 L 427.000000 230.677000 Z " fill="rgb(0, 0, 0)" fill-opacity="1.000000" />
<path d="M 434.000000 231.502000 L 440.600000 231.502000 L 440.600000 230.677000 L 434.000000 230.677000 Z " fill="rgb(0, 0, 0)" fill-opacity="1.000000" />
<path d="M 441.000000 231.502000 L 444.718000 231.502000 L 444.718000 224.484000 L 443.893000 224.484000 L 443.893000 230.677000 L 441.000000 230.677000 Z " fill="rgb(0, 0, 0)" fill-opacity="1.000000" />
<path d="M 443.893000 195.684000 L 444.718000 195.684000 L 444.718000 182.484000 L 443.893000 182.484000 Z " fill="rgb(0, 0, 0)" fill-opacity="1.000000" />
<path d="M 443.893000 209.684000 L 444.718000 209.684000 L 444.718000 196.484000 L 443.893000 196.484000 Z " fill="rgb(0, 0, 0)" fill-opacity="1.000000" />
<path d="M 443.893000 223.684000 L 444.718000 223.684000 L 444.718000 210.484000 L 443.893000 210.484000 Z " fill="rgb(0, 0, 0)" fill-opacity="1.000000" />
<path d="M 14.000000 175.502000 L 20.600000 175.502000 L 20.600000 174.677000 L 14.000000 174.677000 Z " fill="rgb(0, 0, 0)" fill-opacity="1.000000" />
<path d="M 28.000000 175.502000 L 34.600000 175.502000 L 34.600000 174.677000 L 28.000000 174.677000 Z " fill="rgb(0, 0, 0)" fill-opacity="1.000000" />
<path d="M 42.000000 175.502000 L 48.600000 175.502000 L 48.600000 174.677000 L 42.000000 174.677000 Z " fill="rgb(0, 0, 0)" fill-opacity="1.000000" />
<path d="M 56.000000 175.502000 L 62.600000 175.502000 L 62.600000 174.677000 L 56.000000 174.677000 Z " fill="rgb(0, 0, 0)" fill-opacity="1.000000" />
<path d="M 70.000000 175.502000 L 76.600000 175.502000 L 76.600000 174.677000 L 70.000000 174.677000 Z " fill="rgb(0, 0, 0)" fill-opacity="1.000000" />
<path d="M 84.000000 175.502000 L 90.600000 175.502000 L 90.600000 174.677000 L 84.000000 174.677000 Z " fill="rgb(0, 0, 0)" fill-opacity="1.000000" />
<path d="M 98.000000 175.502000 L 104.600000 175.502000 L 104.600000 174.677000 L 98.000000 174.677000 Z " fill="rgb(0, 0, 0)" fill-opacity="1.000000" />
<path d="M 112.000000 175.502000 L 118.600000 175.502000 L 118.600000 174.677000 L 112.000000 174.677000 Z " fill="rgb(0, 0, 0)" fill-opacity="1.000000" />
<path d="M 126.000000 175.502000 L 132.600000 175.502000 L 132.600000 174.677000 L 126.000000 174.677000 Z " fill="rgb(0, 0, 0)" fill-opacity="1.000000" />
<path d="M 140.000000 175.502000 L 146.600000 175.502000 L 146.600000 174.677000 L 140.000000 174.677000 Z " fill="rgb(0, 0, 0)" fill-opacity="1.000000" />
<path d="M 154.000000 175.502000 L 160.600000 175.502000 L 160.600000 174.677000 L 154.000000 174.677000 Z " fill="rgb(0, 0, 0)" fill-opacity="1.000000" />
<path d="M 163.893000 181.684000 L 164.718000 181.684000 L 164.718000 168.484000 L 163.893000 168.484000 Z " fill="rgb(0, 0, 0)" fill-opacity="1.000000" />
<path d="M 168.000000 175.502000 L 174.600000 175.502000 L 174.600000 174.677000 L 168.000000 174.677000 Z " fill="rgb(0, 0, 0)" fill-opacity="1.000000" />
<path d="M 182.000000 175.502000 L 188.600000 175.502000 L 188.600000 174.677000 L 182.000000 174.677000 Z " fill="rgb(0, 0, 0)" fill-opacity="1.000000" />
<path d="M 196.000000 175.502000 L 202.600000 175.502000 L 202.600000 174.677000 L 196.000000 174.677000 Z " fill="rgb(0, 0, 0)" fill-opacity="1.000000" />
<path d="M 210.000000 175.502000 L 216.600000 175.502000 L 216.600000 174.677000 L 210.000000 174.677000 Z " fill="rgb(0, 0, 0)" fill-opacity="1.000000" />
<path d="M 224.000000 175.502000 L 230.600000 175.502000 L 230.600000 174.677000 L 224.000000 174.677000 Z " fill="rgb(0, 0, 0)" fill-opacity="1.000000" />
<path d="M 238.000000 175.502000 L 244.600000 175.502000 L 244.600000 174.677000 L 238.000000 174.677000 Z " fill="rgb(0, 0, 0)" fill-opacity="1.000000" />
<path d="M 252.000000 175.502000 L 258.600000 175.502000 L 258.600000 174.677000 L 252.000000 174.677000 Z " fill="rgb(0, 0, 0)" fill-opacity="1.000000" />
<path d="M 266.000000 175.502000 L 272.600000 175.502000 L 272.600000 174.677000 L 266.000000 174.677000 Z " fill="rgb(0, 0, 0)" fill-opacity="1.000000" />
<path d="M 280.000000 175.502000 L 286.600000 175.502000 L 286.600000 174.677000 L 280.000000 174.677000 Z " fill="rgb(0, 0, 0)" fill-opacity="1.000000" />
<path d="M 294.000000 175.502000 L 300.600000 175.502000 L 300.600000 174.677000 L 294.000000 174.677000 Z " fill="rgb(0, 0, 0)" fill-opacity="1.000000" />
<path d="M 308.000000 175.502000 L 314.600000 175.502000 L 314.600000 174.677000 L 308.000000 174.677000 Z " fill="rgb(0, 0, 0)" fill-opacity="1.000000" />
<path d="M 322.000000 175.502000 L 328.600000 175.502000 L 328.600000 174.677000 L 322.000000 174.677000 Z " fill="rgb(0, 0, 0)" fill-opacity="1.000000" />
<path d="M 336.000000 175.502000 L 342.600000 175.502000 L 342.600000 174.677000 L 336.000000 174.677000 Z " fill="rgb(0, 0, 0)" fill-opacity="1.000000" />
<path d="M 350.000000 175.502000 L 356.600000 175.502000 L 356.600000 174.677000 L 350.000000 174.677000 Z " fill="rgb(0, 0, 0)" fill-opacity="1.000000" />
<path d="M 364.000000 175.502000 L 370.600000 175.502000 L 370.600000 174.677000 L 364.000000 174.677000 Z " fill="rgb(0, 0, 0)" fill-opacity="1.000000" />
<path d="M 378.000000 175.502000 L 384.600000 175.502000 L 384.600000 174.677000 L 378.000000 174.677000 Z " fill="rgb(0, 0, 0)" fill-opacity="1.000000" />
<path d="M 392.000000 175.502000 L 398.600000 175.502000 L 398.600000 174.677000 L 392.000000 174.677000 Z " fill="rgb(0, 0, 0)" fill-opacity="1.000000" />
<path d="M 406.000000 175.502000 L 412.600000 175.502000 L 412.600000 174.677000 L 406.000000 174.677000 Z " fill="rgb(0, 0, 0)" fill-opacity="1.000000" />
<path d="M 420.000000 175.502000 L 426.600000 175.502000 L 426.600000 174.677000 L 420.000000 174.677000 Z " fill="rgb(0, 0, 0)" fill-opacity="1.000000" />
<path d="M 434.000000 175.502000 L 440.600000 175.502000 L 440.600000 174.677000 L 434.000000 174.677000 Z " fill="rgb(0, 0, 0)" fill-opacity="1.000000" />
<path d="M 443.893000 181.684000 L 444.718000 181.684000 L 444.718000 168.484000 L 443.893000 168.484000 Z " fill="rgb(0, 0, 0)" fill-opacity="1.000000" />
<path d="M 448.000000 175.502000 L 454.600000 175.502000 L 454.600000 174.677000 L 448.000000 174.677000 Z " fill="rgb(0, 0, 0)" fill-opacity="1.000000" />
<path d="M 7.000000 161.502000 L 13.600000 161.502000 L 13.600000 160.677000 L 7.000000 160.677000 Z " fill="rgb(0, 0, 0)" fill-opacity="1.000000" />
<path d="M 14.000000 161.502000 L 20.600000 161.502000 L 20.600000 160.677000 L 14.000000 160.677000 Z " fill="rgb(0, 0, 0)" fill-opacity="1.000000" />
<path d="M 21.000000 161.502000 L 27.600000 161.502000 L 27.600000 160.677000 L 21.000000 160.677000 Z " fill="rgb(0, 0, 0)" fill-opacity="1.000000" />
<path d="M 28.000000 161.502000 L 34.600000 161.502000 L 34.600000 160.677000 L 28.000000 160.677000 Z " fill="rgb(0, 0, 0)" fill-opacity="1.000000" />
<path d="M 35.000000 161.502000 L 41.600000 161.502000 L 41.600000 160.677000 L 35.000000 160.677000 Z " fill="rgb(0, 0, 0)" fill-opacity="1.000000" />
<path d="M 42.000000 161.502000 L 48.600000 161.502000 L 48.600000 160.677000 L 42.000000 160.677000 Z " fill="rgb(0, 0, 0)" fill-opacity="1.000000" />
<path d="M 49.000000 161.502000 L 55.600000 161.502000 L 55.600000 160.677000 L 49.000000 160.677000 Z " fill="rgb(0, 0, 0)" fill-opacity="1.000000" />
<path d="M 56.000000 161.502000 L 62.600000 161.502000 L 62.600000 160.677000 L 56.000000 160.677000 Z " fill="rgb(0, 0, 0)" fill-opacity="1.000000" />
<path d="M 63.000000 161.502000 L 69.600000 161.502000 L 69.600000 160.677000 L 63.000000 160.677000 Z " fill="rgb(0, 0, 0)" fill-opacity="1.000000" />
<path d="M 70.000000 161.502000 L 76.600000 161.502000 L 76.600000 160.677000 L 70.000000 160.677000 Z " fill="rgb(0, 0, 0)" fill-opacity="1.000000" />
<path d="M 77.000000 161.502000 L 83.600000 161.502000 L 83.600000 160.677000 L 77.000000 160.677000 Z " fill="rgb(0, 0, 0)" fill-opacity="1.000000" />
<path d="M 84.000000 161.502000 L 90.600000 161.502000 L 90.600000 160.677000 L 84.000000 160.677000 Z " fill="rgb(0, 0, 0)" fill-opacity="1.000000" />
<path d="M 91.000000 161.502000 L 97.600000 161.502000 L 97.600000 160.677000 L 91.000000 160.677000 Z " fill="rgb(0, 0, 0)" fill-opacity="1.000000" />
<path d="M 98.000000 161.502000 L 104.600000 161.502000 L 104.600000 160.677000 L 98.000000 160.677000 Z " fill="rgb(0, 0, 0)" fill-opacity="1.000000" />
<path d="M 105.000000 161.502000 L 111.600000 161.502000 L 111.600000 160.677000 L 105.000000 160.677000 Z " fill="rgb(0, 0, 0)" fill-opacity="1.000000" />
<path d="M 112.000000 161.502000 L 118.600000 161.502000 L 118.600000 160.677000 L 112.000000 160.677000 Z " fill="rgb(0, 0, 0)" fill-opacity="1.000000" />
<path d="M 119.000000 161.502000 L 125.600000 161.502000 L 125.600000 160.677000 L 119.000000 160.677000 Z " fill="rgb(0, 0, 0)" fill-opacity="1.000000" />
<path d="M 126.000000 161.502000 L 132.600000 161.502000 L 132.600000 160.677000 L 126.000000 160.677000 Z " fill="rgb(0, 0, 0)" fill-opacity="1.000000" />
<path d="M 133.000000 161.502000 L 139.600000 161.502000 L 139.600000 160.677000 L 133.000000 160.677000 Z " fill="rgb(0, 0, 0)" fill-opacity="1.000000" />
<path d="M 140.000000 161.502000 L 146.600000 161.502000 L 146.600000 160.677000 L 140.000000 160.677000 Z " fill="rgb(0, 0, 0)" fill-opacity="1.000000" />
<path d="M 147.000000 161.502000 L 150.718000 161.502000 L 150.718000 154.484000 L 149.893000 154.484000 L 149.893000 160.677000 L 147.000000 160.677000 Z " fill="rgb(0, 0, 0)" fill-opacity="1.000000" />
<path d="M 163.893000 167.684000 L 164.718000 167.684000 L 164.718000 154.484000 L 163.893000 154.484000 Z " fill="rgb(0, 0, 0)" fill-opacity="1.000000" />
<path d="M 443.893000 167.684000 L 444.718000 167.684000 L 444.718000 154.484000 L 443.893000 154.484000 Z " fill="rgb(0, 0, 0)" fill-opacity="1.000000" />
<path d="M 451.091000 163.735000 C 451.201000 163.955000 451.410000 163.955000 451.509000 163.735000 L 454.050000 158.422000 C 454.138000 158.235000 454.028000 158.103000 453.885000 158.103000 L 448.715000 158.103000 C 448.550000 158.103000 448.462000 158.257000 448.550000 158.422000 Z " fill="rgb(0, 0, 0)" fill-opacity="1.000000" />
<path d="M 37.805000 88.136000 L 39.015000 88.136000 L 39.015000 86.926000 L 37.805000 86.926000 Z M 36.243000 95.000000 L 40.786000 95.000000 L 40.786000 94.219000 L 38.993000 94.219000 L 38.993000 89.302000 L 36.353000 89.302000 L 36.353000 90.083000 L 38.146000 90.083000 L 38.146000 94.219000 L 36.243000 94.219000 Z " fill="rgb(0, 0, 0)" fill-opacity="1.000000" />
<path d="M 149.893000 111.684000 L 150.718000 111.684000 L 150.718000 98.484000 L 149.893000 98.484000 Z " fill="rgb(0, 0, 0)" fill-opacity="1.000000" />
<path d="M 149.893000 125.684000 L 150.718000 125.684000 L 150.718000 112.484000 L 149.893000 112.484000 Z " fill="rgb(0, 0, 0)" fill-opacity="1.000000" />
<path d="M 149.893000 139.684000 L 150.718000 139.684000 L 150.718000 126.484000 L 149.893000 126.484000 Z " fill="rgb(0, 0, 0)" fill-opacity="1.000000" />
<path d="M 149.893000 153.684000 L 150.718000 153.684000 L 150.718000 140.484000 L 149.893000 140.484000 Z " fill="rgb(0, 0, 0)" fill-opacity="1.000000" />
<path d="M 163.893000 111.684000 L 164.718000 111.684000 L 164.718000 98.484000 L 163.893000 98.484000 Z " fill="rgb(0, 0, 0)" fill-opacity="1.000000" />
<path d="M 163.893000 125.684000 L 164.718000 125.684000 L 164.718000 112.484000 L 163.893000 112.484000 Z " fill="rgb(0, 0, 0)" fill-opacity="1.000000" />
<path d="M 163.893000 139.684000 L 164.718000 139.684000 L 164.718000 126.484000 L 163.893000 126.484000 Z " fill="rgb(0, 0, 0)" fill-opacity="1.000000" />
<path d="M 163.893000 153.684000 L 164.718000 153.684000 L 164.718000 140.484000 L 163.893000 140.484000 Z " fill="rgb(0, 0, 0)" fill-opacity="1.000000" />
<path d="M 261.805000 116.136000 L 263.015000 116.136000 L 263.015000 114.926000 L 261.805000 114.926000 Z M 260.243000 123.000000 L 264.786000 123.000000 L 264.786000 122.219000 L 262.993000 122.219000 L 262.993000 117.302000 L 260.353000 117.302000 L 260.353000 118.083000 L 262.146000 118.083000 L 262.146000 122.219000 L 260.243000 122.219000 Z " fill="rgb(0, 0, 0)" fill-opacity="1.000000" />
<path d="M 443.893000 139.684000 L 444.718000 139.684000 L 444.718000 126.484000 L 443.893000 126.484000 Z " fill="rgb(0, 0, 0)" fill-opacity="1.000000" />
<path d="M 443.893000 153.684000 L 444.718000 153.684000 L 444.718000 140.484000 L 443.893000 140.484000 Z " fill="rgb(0, 0, 0)" fill-opacity="1.000000" />
<path d="M 450.893000 139.684000 L 451.718000 139.684000 L 451.718000 126.484000 L 450.893000 126.484000 Z " fill="rgb(0, 0, 0)" fill-opacity="1.000000" />
<path d="M 450.893000 153.684000 L 451.718000 153.684000 L 451.718000 140.484000 L 450.893000 140.484000 Z " fill="rgb(0, 0, 0)" fill-opacity="1.000000" />
<path d="M 266.539000 123.000000 L 267.386000 123.000000 L 267.386000 120.085000 C 267.386000 118.457000 267.551000 118.006000 268.189000 118.006000 C 268.761000 118.006000 268.926000 118.358000 268.915000 119.623000 L 268.893000 123.000000 L 269.751000 123.000000 L 269.751000 120.085000 C 269.751000 118.457000 269.927000 118.006000 270.543000 118.006000 C 271.093000 118.006000 271.236000 118.358000 271.236000 119.623000 L 271.236000 123.000000 L 272.083000 123.000000 L 272.083000 119.623000 C 272.083000 117.709000 271.819000 117.192000 270.807000 117.192000 C 270.202000 117.192000 269.960000 117.379000 269.707000 118.061000 L 269.652000 118.061000 C 269.509000 117.379000 269.278000 117.192000 268.574000 117.192000 C 267.870000 117.192000 267.617000 117.379000 267.364000 118.061000 L 267.309000 118.061000 L 267.309000 117.302000 L 266.539000 117.302000 Z " fill="rgb(0, 0, 0)" fill-opacity="1.000000" />
<path d="M 277.686000 123.000000 L 278.478000 123.000000 L 278.478000 119.271000 C 278.478000 117.566000 278.071000 117.192000 276.245000 117.192000 C 274.606000 117.192000 274.243000 117.489000 274.243000 118.831000 L 275.090000 118.831000 C 275.112000 118.127000 275.332000 117.973000 276.278000 117.973000 C 277.433000 117.973000 277.686000 118.204000 277.686000 119.271000 L 277.686000 119.513000 L 276.597000 119.513000 C 274.507000 119.513000 274.045000 119.865000 274.045000 121.460000 C 274.045000 122.813000 274.386000 123.110000 275.926000 123.110000 C 277.059000 123.110000 277.367000 122.956000 277.631000 122.263000 L 277.686000 122.263000 Z M 277.675000 120.283000 C 277.675000 121.944000 277.378000 122.307000 276.036000 122.307000 C 275.112000 122.307000 274.903000 122.131000 274.903000 121.350000 C 274.903000 120.470000 275.167000 120.283000 276.377000 120.283000 Z " fill="rgb(0, 0, 0)" fill-opacity="1.000000" />
<path d="M 281.089000 123.682000 C 281.177000 125.057000 281.573000 125.365000 283.289000 125.365000 C 285.236000 125.365000 285.665000 124.958000 285.676000 123.110000 L 285.676000 117.302000 L 284.829000 117.302000 L 284.829000 118.050000 L 284.774000 118.050000 C 284.510000 117.346000 284.224000 117.192000 283.190000 117.192000 C 281.298000 117.192000 280.880000 117.720000 280.880000 120.107000 C 280.880000 122.483000 281.298000 123.000000 283.179000 123.000000 C 284.224000 123.000000 284.510000 122.846000 284.785000 122.131000 L 284.840000 122.131000 L 284.840000 122.989000 C 284.818000 124.298000 284.532000 124.584000 283.234000 124.584000 C 282.211000 124.584000 281.991000 124.419000 281.991000 123.682000 Z M 283.300000 122.208000 C 282.035000 122.208000 281.760000 121.834000 281.760000 120.107000 C 281.760000 118.369000 282.035000 117.984000 283.300000 117.984000 C 284.565000 117.984000 284.840000 118.369000 284.840000 120.107000 C 284.840000 121.834000 284.565000 122.208000 283.300000 122.208000 Z " fill="rgb(0, 0, 0)" fill-opacity="1.000000" />
<path d="M 291.741000 121.515000 C 291.532000 122.142000 291.290000 122.285000 290.410000 122.285000 C 289.101000 122.285000 288.804000 121.977000 288.760000 120.569000 L 292.731000 120.569000 C 292.764000 117.797000 292.324000 117.192000 290.289000 117.192000 C 288.353000 117.192000 287.924000 117.720000 287.924000 120.140000 C 287.924000 122.571000 288.375000 123.110000 290.443000 123.110000 C 291.983000 123.110000 292.379000 122.824000 292.621000 121.515000 Z M 288.771000 119.777000 C 288.804000 118.336000 289.090000 118.017000 290.333000 118.017000 C 291.554000 118.017000 291.840000 118.336000 291.884000 119.777000 Z " fill="rgb(0, 0, 0)" fill-opacity="1.000000" />
<path d="M 295.012000 123.000000 L 299.786000 123.000000 L 299.786000 122.164000 L 295.925000 122.164000 L 295.925000 122.043000 C 297.861000 120.327000 298.389000 119.799000 298.917000 119.172000 C 299.500000 118.490000 299.621000 118.160000 299.621000 117.401000 C 299.621000 115.773000 299.192000 115.410000 297.256000 115.410000 C 295.397000 115.410000 294.957000 115.751000 294.858000 117.302000 L 295.760000 117.302000 C 295.837000 116.422000 296.112000 116.235000 297.256000 116.235000 C 298.477000 116.235000 298.741000 116.444000 298.741000 117.390000 C 298.741000 117.929000 298.653000 118.149000 298.268000 118.633000 C 297.762000 119.260000 297.179000 119.810000 295.012000 121.691000 Z " fill="rgb(0, 0, 0)" fill-opacity="1.000000" />
<path d="M 313.203000 123.539000 C 312.048000 123.407000 311.652000 122.989000 311.432000 121.757000 C 311.322000 121.141000 311.256000 120.316000 311.256000 119.579000 C 311.256000 118.897000 311.311000 118.072000 311.432000 117.412000 C 311.652000 116.202000 312.059000 115.773000 313.203000 115.707000 L 313.214000 114.772000 C 311.993000 114.805000 311.003000 115.025000 310.585000 117.126000 C 310.442000 117.841000 310.376000 118.732000 310.376000 119.590000 C 310.376000 120.525000 310.453000 121.427000 310.574000 122.087000 C 310.871000 123.715000 311.520000 124.452000 313.214000 124.474000 Z " fill="rgb(0, 0, 0)" fill-opacity="1.000000" />
<path d="M 316.012000 123.000000 L 320.786000 123.000000 L 320.786000 122.164000 L 316.925000 122.164000 L 316.925000 122.043000 C 318.861000 120.327000 319.389000 119.799000 319.917000 119.172000 C 320.500000 118.490000 320.621000 118.160000 320.621000 117.401000 C 320.621000 115.773000 320.192000 115.410000 318.256000 115.410000 C 316.397000 115.410000 315.957000 115.751000 315.858000 117.302000 L 316.760000 117.302000 C 316.837000 116.422000 317.112000 116.235000 318.256000 116.235000 C 319.477000 116.235000 319.741000 116.444000 319.741000 117.390000 C 319.741000 117.929000 319.653000 118.149000 319.268000 118.633000 C 318.762000 119.260000 318.179000 119.810000 316.012000 121.691000 Z " fill="rgb(0, 0, 0)" fill-opacity="1.000000" />
<path d="M 322.924000 123.902000 L 323.848000 123.902000 L 327.676000 114.420000 L 326.752000 114.420000 Z " fill="rgb(0, 0, 0)" fill-opacity="1.000000" />
<path d="M 329.924000 122.703000 C 330.232000 122.846000 331.079000 123.077000 331.926000 123.077000 C 334.082000 123.077000 334.555000 122.637000 334.555000 120.613000 C 334.555000 118.831000 334.170000 118.391000 332.410000 118.237000 C 331.827000 118.182000 331.255000 118.259000 331.068000 118.292000 L 331.255000 116.334000 L 334.236000 116.312000 L 334.236000 115.520000 L 330.496000 115.520000 L 330.155000 119.205000 C 330.705000 119.062000 331.849000 118.996000 332.410000 119.073000 C 333.444000 119.216000 333.675000 119.491000 333.675000 120.635000 C 333.675000 121.966000 333.389000 122.252000 332.058000 122.252000 C 331.332000 122.252000 330.232000 121.911000 329.924000 121.735000 Z " fill="rgb(0, 0, 0)" fill-opacity="1.000000" />
<path d="M 337.386000 124.474000 C 338.882000 124.452000 339.630000 123.869000 340.004000 122.065000 C 340.158000 121.317000 340.224000 120.448000 340.224000 119.601000 C 340.224000 118.919000 340.169000 117.973000 340.004000 117.170000 C 339.641000 115.377000 338.904000 114.816000 337.386000 114.772000 L 337.397000 115.707000 C 338.398000 115.762000 338.926000 116.169000 339.168000 117.434000 C 339.300000 118.116000 339.333000 118.930000 339.333000 119.601000 C 339.333000 120.371000 339.278000 121.130000 339.168000 121.735000 C 338.937000 123.000000 338.486000 123.418000 337.397000 123.539000 Z " fill="rgb(0, 0, 0)" fill-opacity="1.000000" />
<path d="M 443.893000 125.684000 L 444.718000 125.684000 L 444.718000 112.484000 L 443.893000 112.484000 Z " fill="rgb(0, 0, 0)" fill-opacity="1.000000" />
<path d="M 450.893000 125.684000 L 451.718000 125.684000 L 451.718000 112.484000 L 450.893000 112.484000 Z " fill="rgb(0, 0, 0)" fill-opacity="1.000000" />
<path d="M 443.893000 111.684000 L 444.718000 111.684000 L 444.718000 98.484000 L 443.893000 98.484000 Z " fill="rgb(0, 0, 0)" fill-opacity="1.000000" />
<path d="M 450.893000 111.684000 L 451.718000 111.684000 L 451.718000 98.484000 L 450.893000 98.484000 Z " fill="rgb(0, 0, 0)" fill-opacity="1.000000" />
<path d="M 42.539000 95.000000 L 43.386000 95.000000 L 43.386000 92.085000 C 43.386000 90.457000 43.551000 90.006000 44.189000 90.006000 C 44.761000 90.006000 44.926000 90.358000 44.915000 91.623000 L 44.893000 95.000000 L 45.751000 95.000000 L 45.751000 92.085000 C 45.751000 90.457000 45.927000 90.006000 46.543000 90.006000 C 47.093000 90.006000 47.236000 90.358000 47.236000 91.623000 L 47.236000 95.000000 L 48.083000 95.000000 L 48.083000 91.623000 C 48.083000 89.709000 47.819000 89.192000 46.807000 89.192000 C 46.202000 89.192000 45.960000 89.379000 45.707000 90.061000 L 45.652000 90.061000 C 45.509000 89.379000 45.278000 89.192000 44.574000 89.192000 C 43.870000 89.192000 43.617000 89.379000 43.364000 90.061000 L 43.309000 90.061000 L 43.309000 89.302000 L 42.539000 89.302000 Z " fill="rgb(0, 0, 0)" fill-opacity="1.000000" />
<path d="M 53.686000 95.000000 L 54.478000 95.000000 L 54.478000 91.271000 C 54.478000 89.566000 54.071000 89.192000 52.245000 89.192000 C 50.606000 89.192000 50.243000 89.489000 50.243000 90.831000 L 51.090000 90.831000 C 51.112000 90.127000 51.332000 89.973000 52.278000 89.973000 C 53.433000 89.973000 53.686000 90.204000 53.686000 91.271000 L 53.686000 91.513000 L 52.597000 91.513000 C 50.507000 91.513000 50.045000 91.865000 50.045000 93.460000 C 50.045000 94.813000 50.386000 95.110000 51.926000 95.110000 C 53.059000 95.110000 53.367000 94.956000 53.631000 94.263000 L 53.686000 94.263000 Z M 53.675000 92.283000 C 53.675000 93.944000 53.378000 94.307000 52.036000 94.307000 C 51.112000 94.307000 50.903000 94.131000 50.903000 93.350000 C 50.903000 92.470000 51.167000 92.283000 52.377000 92.283000 Z " fill="rgb(0, 0, 0)" fill-opacity="1.000000" />
<path d="M 57.089000 95.682000 C 57.177000 97.057000 57.573000 97.365000 59.289000 97.365000 C 61.236000 97.365000 61.665000 96.958000 61.676000 95.110000 L 61.676000 89.302000 L 60.829000 89.302000 L 60.829000 90.050000 L 60.774000 90.050000 C 60.510000 89.346000 60.224000 89.192000 59.190000 89.192000 C 57.298000 89.192000 56.880000 89.720000 56.880000 92.107000 C 56.880000 94.483000 57.298000 95.000000 59.179000 95.000000 C 60.224000 95.000000 60.510000 94.846000 60.785000 94.131000 L 60.840000 94.131000 L 60.840000 94.989000 C 60.818000 96.298000 60.532000 96.584000 59.234000 96.584000 C 58.211000 96.584000 57.991000 96.419000 57.991000 95.682000 Z M 59.300000 94.208000 C 58.035000 94.208000 57.760000 93.834000 57.760000 92.107000 C 57.760000 90.369000 58.035000 89.984000 59.300000 89.984000 C 60.565000 89.984000 60.840000 90.369000 60.840000 92.107000 C 60.840000 93.834000 60.565000 94.208000 59.300000 94.208000 Z " fill="rgb(0, 0, 0)" fill-opacity="1.000000" />
<path d="M 67.741000 93.515000 C 67.532000 94.142000 67.290000 94.285000 66.410000 94.285000 C 65.101000 94.285000 64.804000 93.977000 64.760000 92.569000 L 68.731000 92.569000 C 68.764000 89.797000 68.324000 89.192000 66.289000 89.192000 C 64.353000 89.192000 63.924000 89.720000 63.924000 92.140000 C 63.924000 94.571000 64.375000 95.110000 66.443000 95.110000 C 67.983000 95.110000 68.379000 94.824000 68.621000 93.515000 Z M 64.771000 91.777000 C 64.804000 90.336000 65.090000 90.017000 66.333000 90.017000 C 67.554000 90.017000 67.840000 90.336000 67.884000 91.777000 Z " fill="rgb(0, 0, 0)" fill-opacity="1.000000" />
<path d="M 73.575000 95.000000 L 74.455000 95.000000 L 74.455000 87.520000 L 73.421000 87.520000 L 71.188000 89.126000 L 71.188000 90.193000 L 73.575000 88.488000 Z " fill="rgb(0, 0, 0)" fill-opacity="1.000000" />
<path d="M 89.203000 95.539000 C 88.048000 95.407000 87.652000 94.989000 87.432000 93.757000 C 87.322000 93.141000 87.256000 92.316000 87.256000 91.579000 C 87.256000 90.897000 87.311000 90.072000 87.432000 89.412000 C 87.652000 88.202000 88.059000 87.773000 89.203000 87.707000 L 89.214000 86.772000 C 87.993000 86.805000 87.003000 87.025000 86.585000 89.126000 C 86.442000 89.841000 86.376000 90.732000 86.376000 91.590000 C 86.376000 92.525000 86.453000 93.427000 86.574000 94.087000 C 86.871000 95.715000 87.520000 96.452000 89.214000 96.474000 Z " fill="rgb(0, 0, 0)" fill-opacity="1.000000" />
<path d="M 92.012000 95.000000 L 96.786000 95.000000 L 96.786000 94.164000 L 92.925000 94.164000 L 92.925000 94.043000 C 94.861000 92.327000 95.389000 91.799000 95.917000 91.172000 C 96.500000 90.490000 96.621000 90.160000 96.621000 89.401000 C 96.621000 87.773000 96.192000 87.410000 94.256000 87.410000 C 92.397000 87.410000 91.957000 87.751000 91.858000 89.302000 L 92.760000 89.302000 C 92.837000 88.422000 93.112000 88.235000 94.256000 88.235000 C 95.477000 88.235000 95.741000 88.444000 95.741000 89.390000 C 95.741000 89.929000 95.653000 90.149000 95.268000 90.633000 C 94.762000 91.260000 94.179000 91.810000 92.012000 93.691000 Z " fill="rgb(0, 0, 0)" fill-opacity="1.000000" />
<path d="M 98.924000 95.902000 L 99.848000 95.902000 L 103.676000 86.420000 L 102.752000 86.420000 Z " fill="rgb(0, 0, 0)" fill-opacity="1.000000" />
<path d="M 108.575000 95.000000 L 109.455000 95.000000 L 109.455000 87.520000 L 108.421000 87.520000 L 106.188000 89.126000 L 106.188000 90.193000 L 108.575000 88.488000 Z " fill="rgb(0, 0, 0)" fill-opacity="1.000000" />
<path d="M 113.386000 96.474000 C 114.882000 96.452000 115.630000 95.869000 116.004000 94.065000 C 116.158000 93.317000 116.224000 92.448000 116.224000 91.601000 C 116.224000 90.919000 116.169000 89.973000 116.004000 89.170000 C 115.641000 87.377000 114.904000 86.816000 113.386000 86.772000 L 113.397000 87.707000 C 114.398000 87.762000 114.926000 88.169000 115.168000 89.434000 C 115.300000 90.116000 115.333000 90.930000 115.333000 91.601000 C 115.333000 92.371000 115.278000 93.130000 115.168000 93.735000 C 114.937000 95.000000 114.486000 95.418000 113.397000 95.539000 Z " fill="rgb(0, 0, 0)" fill-opacity="1.000000" />
<path d="M 149.893000 97.684000 L 150.718000 97.684000 L 150.718000 84.484000 L 149.893000 84.484000 Z " fill="rgb(0, 0, 0)" fill-opacity="1.000000" />
<path d="M 163.893000 97.684000 L 164.718000 97.684000 L 164.718000 84.484000 L 163.893000 84.484000 Z " fill="rgb(0, 0, 0)" fill-opacity="1.000000" />
<path d="M 443.893000 97.684000 L 444.718000 97.684000 L 444.718000 84.484000 L 443.893000 84.484000 Z " fill="rgb(0, 0, 0)" fill-opacity="1.000000" />
<path d="M 450.893000 97.684000 L 451.718000 97.684000 L 451.718000 84.484000 L 450.893000 84.484000 Z " fill="rgb(0, 0, 0)" fill-opacity="1.000000" />
<path d="M 469.539000 95.000000 L 470.386000 95.000000 L 470.386000 92.085000 C 470.386000 90.457000 470.551000 90.006000 471.189000 90.006000 C 471.761000 90.006000 471.926000 90.358000 471.915000 91.623000 L 471.893000 95.000000 L 472.751000 95.000000 L 472.751000 92.085000 C 472.751000 90.457000 472.927000 90.006000 473.543000 90.006000 C 474.093000 90.006000 474.236000 90.358000 474.236000 91.623000 L 474.236000 95.000000 L 475.083000 95.000000 L 475.083000 91.623000 C 475.083000 89.709000 474.819000 89.192000 473.807000 89.192000 C 473.202000 89.192000 472.960000 89.379000 472.707000 90.061000 L 472.652000 90.061000 C 472.509000 89.379000 472.278000 89.192000 471.574000 89.192000 C 470.870000 89.192000 470.617000 89.379000 470.364000 90.061000 L 470.309000 90.061000 L 470.309000 89.302000 L 469.539000 89.302000 Z " fill="rgb(0, 0, 0)" fill-opacity="1.000000" />
<path d="M 480.686000 95.000000 L 481.478000 95.000000 L 481.478000 91.271000 C 481.478000 89.566000 481.071000 89.192000 479.245000 89.192000 C 477.606000 89.192000 477.243000 89.489000 477.243000 90.831000 L 478.090000 90.831000 C 478.112000 90.127000 478.332000 89.973000 479.278000 89.973000 C 480.433000 89.973000 480.686000 90.204000 480.686000 91.271000 L 480.686000 91.513000 L 479.597000 91.513000 C 477.507000 91.513000 477.045000 91.865000 477.045000 93.460000 C 477.045000 94.813000 477.386000 95.110000 478.926000 95.110000 C 480.059000 95.110000 480.367000 94.956000 480.631000 94.263000 L 480.686000 94.263000 Z M 480.675000 92.283000 C 480.675000 93.944000 480.378000 94.307000 479.036000 94.307000 C 478.112000 94.307000 477.903000 94.131000 477.903000 93.350000 C 477.903000 92.470000 478.167000 92.283000 479.377000 92.283000 Z " fill="rgb(0, 0, 0)" fill-opacity="1.000000" />
<path d="M 483.792000 95.000000 L 484.837000 95.000000 L 486.278000 92.767000 L 486.311000 92.767000 L 487.763000 95.000000 L 488.808000 95.000000 L 486.883000 92.129000 L 488.775000 89.302000 L 487.719000 89.302000 L 486.333000 91.535000 L 486.311000 91.535000 L 484.925000 89.302000 L 483.880000 89.302000 L 485.728000 92.129000 Z " fill="rgb(0, 0, 0)" fill-opacity="1.000000" />
<path d="M 491.309000 92.074000 L 495.291000 92.074000 L 495.291000 91.172000 L 491.309000 91.172000 Z " fill="rgb(0, 0, 0)" fill-opacity="1.000000" />
<path d="M 498.034000 95.000000 L 498.914000 95.000000 L 498.914000 92.085000 C 498.914000 90.369000 499.189000 89.995000 500.443000 89.995000 C 501.466000 89.995000 501.697000 90.237000 501.697000 91.370000 L 501.697000 95.000000 L 502.577000 95.000000 L 502.577000 91.370000 C 502.577000 89.588000 502.236000 89.192000 500.663000 89.192000 C 499.585000 89.192000 499.277000 89.368000 498.969000 90.171000 L 498.914000 90.171000 L 498.914000 86.926000 L 498.034000 86.926000 Z " fill="rgb(0, 0, 0)" fill-opacity="1.000000" />
<path d="M 508.741000 93.515000 C 508.532000 94.142000 508.290000 94.285000 507.410000 94.285000 C 506.101000 94.285000 505.804000 93.977000 505.760000 92.569000 L 509.731000 92.569000 C 509.764000 89.797000 509.324000 89.192000 507.289000 89.192000 C 505.353000 89.192000 504.924000 89.720000 504.924000 92.140000 C 504.924000 94.571000 505.375000 95.110000 507.443000 95.110000 C 508.983000 95.110000 509.379000 94.824000 509.621000 93.515000 Z M 505.771000 91.777000 C 505.804000 90.336000 506.090000 90.017000 507.333000 90.017000 C 508.554000 90.017000 508.840000 90.336000 508.884000 91.777000 Z " fill="rgb(0, 0, 0)" fill-opacity="1.000000" />
<path d="M 513.805000 88.136000 L 515.015000 88.136000 L 515.015000 86.926000 L 513.805000 86.926000 Z M 512.243000 95.000000 L 516.786000 95.000000 L 516.786000 94.219000 L 514.993000 94.219000 L 514.993000 89.302000 L 512.353000 89.302000 L 512.353000 90.083000 L 514.146000 90.083000 L 514.146000 94.219000 L 512.243000 94.219000 Z " fill="rgb(0, 0, 0)" fill-opacity="1.000000" />
<path d="M 519.089000 95.682000 C 519.177000 97.057000 519.573000 97.365000 521.289000 97.365000 C 523.236000 97.365000 523.665000 96.958000 523.676000 95.110000 L 523.676000 89.302000 L 522.829000 89.302000 L 522.829000 90.050000 L 522.774000 90.050000 C 522.510000 89.346000 522.224000 89.192000 521.190000 89.192000 C 519.298000 89.192000 518.880000 89.720000 518.880000 92.107000 C 518.880000 94.483000 519.298000 95.000000 521.179000 95.000000 C 522.224000 95.000000 522.510000 94.846000 522.785000 94.131000 L 522.840000 94.131000 L 522.840000 94.989000 C 522.818000 96.298000 522.532000 96.584000 521.234000 96.584000 C 520.211000 96.584000 519.991000 96.419000 519.991000 95.682000 Z M 521.300000 94.208000 C 520.035000 94.208000 519.760000 93.834000 519.760000 92.107000 C 519.760000 90.369000 520.035000 89.984000 521.300000 89.984000 C 522.565000 89.984000 522.840000 90.369000 522.840000 92.107000 C 522.840000 93.834000 522.565000 94.208000 521.300000 94.208000 Z " fill="rgb(0, 0, 0)" fill-opacity="1.000000" />
<path d="M 526.034000 95.000000 L 526.914000 95.000000 L 526.914000 92.085000 C 526.914000 90.369000 527.189000 89.995000 528.443000 89.995000 C 529.466000 89.995000 529.697000 90.237000 529.697000 91.370000 L 529.697000 95.000000 L 530.577000 95.000000 L 530.577000 91.370000 C 530.577000 89.588000 530.236000 89.192000 528.663000 89.192000 C 527.585000 89.192000 527.277000 89.368000 526.969000 90.171000 L 526.914000 90.171000 L 526.914000 86.926000 L 526.034000 86.926000 Z " fill="rgb(0, 0, 0)" fill-opacity="1.000000" />
<path d="M 532.858000 90.061000 L 534.354000 90.061000 L 534.354000 93.273000 C 534.354000 94.780000 534.673000 95.110000 536.136000 95.110000 C 536.532000 95.110000 536.774000 95.088000 537.500000 94.989000 L 537.500000 94.186000 C 536.807000 94.263000 536.587000 94.285000 536.323000 94.285000 C 535.410000 94.285000 535.212000 94.098000 535.212000 93.229000 L 535.212000 90.061000 L 537.258000 90.061000 L 537.258000 89.302000 L 535.223000 89.302000 L 535.223000 87.652000 L 534.376000 88.015000 L 534.376000 89.302000 L 533.078000 89.302000 Z " fill="rgb(0, 0, 0)" fill-opacity="1.000000" />
<path d="M 149.893000 41.684000 L 150.718000 41.684000 L 150.718000 28.484000 L 149.893000 28.484000 Z " fill="rgb(0, 0, 0)" fill-opacity="1.000000" />
<path d="M 149.893000 55.684000 L 150.718000 55.684000 L 150.718000 42.484000 L 149.893000 42.484000 Z " fill="rgb(0, 0, 0)" fill-opacity="1.000000" />
<path d="M 149.893000 69.684000 L 150.718000 69.684000 L 150.718000 56.484000 L 149.893000 56.484000 Z " fill="rgb(0, 0, 0)" fill-opacity="1.000000" />
<path d="M 149.893000 83.684000 L 150.718000 83.684000 L 150.718000 70.484000 L 149.893000 70.484000 Z " fill="rgb(0, 0, 0)" fill-opacity="1.000000" />
<path d="M 163.893000 41.684000 L 164.718000 41.684000 L 164.718000 28.484000 L 163.893000 28.484000 Z " fill="rgb(0, 0, 0)" fill-opacity="1.000000" />
<path d="M 163.893000 55.684000 L 164.718000 55.684000 L 164.718000 42.484000 L 163.893000 42.484000 Z " fill="rgb(0, 0, 0)" fill-opacity="1.000000" />
<path d="M 163.893000 69.684000 L 164.718000 69.684000 L 164.718000 56.484000 L 163.893000 56.484000 Z " fill="rgb(0, 0, 0)" fill-opacity="1.000000" />
<path d="M 163.893000 83.684000 L 164.718000 83.684000 L 164.718000 70.484000 L 163.893000 70.484000 Z " fill="rgb(0, 0, 0)" fill-opacity="1.000000" />
<path d="M 443.893000 41.684000 L 444.718000 41.684000 L 444.718000 28.484000 L 443.893000 28.484000 Z " fill="rgb(0, 0, 0)" fill-opacity="1.000000" />
<path d="M 443.893000 55.684000 L 444.718000 55.684000 L 444.718000 42.484000 L 443.893000 42.484000 Z " fill="rgb(0, 0, 0)" fill-opacity="1.000000" />
<path d="M 443.893000 69.684000 L 444.718000 69.684000 L 444.718000 56.484000 L 443.893000 56.484000 Z " fill="rgb(0, 0, 0)" fill-opacity="1.000000" />
<path d="M 443.893000 83.684000 L 444.718000 83.684000 L 444.718000 70.484000 L 443.893000 70.484000 Z " fill="rgb(0, 0, 0)" fill-opacity="1.000000" />
<path d="M 450.893000 41.684000 L 451.718000 41.684000 L 451.718000 28.484000 L 450.893000 28.484000 Z " fill="rgb(0, 0, 0)" fill-opacity="1.000000" />
<path d="M 450.893000 55.684000 L 451.718000 55.684000 L 451.718000 42.484000 L 450.893000 42.484000 Z " fill="rgb(0, 0, 0)" fill-opacity="1.000000" />
<path d="M 450.893000 69.684000 L 451.718000 69.684000 L 451.718000 56.484000 L 450.893000 56.484000 Z " fill="rgb(0, 0, 0)" fill-opacity="1.000000" />
<path d="M 450.893000 83.684000 L 451.718000 83.684000 L 451.718000 70.484000 L 450.893000 70.484000 Z " fill="rgb(0, 0, 0)" fill-opacity="1.000000" />
<path d="M 7.000000 21.502000 L 13.600000 21.502000 L 13.600000 20.677000 L 7.000000 20.677000 Z " fill="rgb(0, 0, 0)" fill-opacity="1.000000" />
<path d="M 14.000000 21.502000 L 20.600000 21.502000 L 20.600000 20.677000 L 14.000000 20.677000 Z " fill="rgb(0, 0, 0)" fill-opacity="1.000000" />
<path d="M 21.000000 21.502000 L 27.600000 21.502000 L 27.600000 20.677000 L 21.000000 20.677000 Z " fill="rgb(0, 0, 0)" fill-opacity="1.000000" />
<path d="M 28.000000 21.502000 L 34.600000 21.502000 L 34.600000 20.677000 L 28.000000 20.677000 Z " fill="rgb(0, 0, 0)" fill-opacity="1.000000" />
<path d="M 35.000000 21.502000 L 41.600000 21.502000 L 41.600000 20.677000 L 35.000000 20.677000 Z " fill="rgb(0, 0, 0)" fill-opacity="1.000000" />
<path d="M 42.000000 21.502000 L 48.600000 21.502000 L 48.600000 20.677000 L 42.000000 20.677000 Z " fill="rgb(0, 0, 0)" fill-opacity="1.000000" />
<path d="M 49.000000 21.502000 L 55.600000 21.502000 L 55.600000 20.677000 L 49.000000 20.677000 Z " fill="rgb(0, 0, 0)" fill-opacity="1.000000" />
<path d="M 56.000000 21.502000 L 62.600000 21.502000 L 62.600000 20.677000 L 56.000000 20.677000 Z " fill="rgb(0, 0, 0)" fill-opacity="1.000000" />
<path d="M 63.000000 21.502000 L 69.600000 21.502000 L 69.600000 20.677000 L 63.000000 20.677000 Z " fill="rgb(0, 0, 0)" fill-opacity="1.000000" />
<path d="M 70.000000 21.502000 L 76.600000 21.502000 L 76.600000 20.677000 L 70.000000 20.677000 Z " fill="rgb(0, 0, 0)" fill-opacity="1.000000" />
<path d="M 77.000000 21.502000 L 83.600000 21.502000 L 83.600000 20.677000 L 77.000000 20.677000 Z " fill="rgb(0, 0, 0)" fill-opacity="1.000000" />
<path d="M 84.000000 21.502000 L 90.600000 21.502000 L 90.600000 20.677000 L 84.000000 20.677000 Z " fill="rgb(0, 0, 0)" fill-opacity="1.000000" />
<path d="M 91.000000 21.502000 L 97.600000 21.502000 L 97.600000 20.677000 L 91.000000 20.677000 Z " fill="rgb(0, 0, 0)" fill-opacity="1.000000" />
<path d="M 98.000000 21.502000 L 104.600000 21.502000 L 104.600000 20.677000 L 98.000000 20.677000 Z " fill="rgb(0, 0, 0)" fill-opacity="1.000000" />
<path d="M 105.000000 21.502000 L 111.600000 21.502000 L 111.600000 20.677000 L 105.000000 20.677000 Z " fill="rgb(0, 0, 0)" fill-opacity="1.000000" />
<path d="M 112.000000 21.502000 L 118.600000 21.502000 L 118.600000 20.677000 L 112.000000 20.677000 Z " fill="rgb(0, 0, 0)" fill-opacity="1.000000" />
<path d="M 119.000000 21.502000 L 125.600000 21.502000 L 125.600000 20.677000 L 119.000000 20.677000 Z " fill="rgb(0, 0, 0)" fill-opacity="1.000000" />
<path d="M 126.000000 21.502000 L 132.600000 21.502000 L 132.600000 20.677000 L 126.000000 20.677000 Z " fill="rgb(0, 0, 0)" fill-opacity="1.000000" />
<path d="M 133.000000 21.502000 L 139.600000 21.502000 L 139.600000 20.677000 L 133.000000 20.677000 Z " fill="rgb(0, 0, 0)" fill-opacity="1.000000" />
<path d="M 140.000000 21.502000 L 146.600000 21.502000 L 146.600000 20.677000 L 140.000000 20.677000 Z " fill="rgb(0, 0, 0)" fill-opacity="1.000000" />
<path d="M 147.000000 21.502000 L 149.893000 21.502000 L 149.893000 27.684000 L 150.718000 27.684000 L 150.718000 20.677000 L 147.000000 20.677000 Z " fill="rgb(0, 0, 0)" fill-opacity="1.000000" />
<path d="M 163.893000 27.684000 L 164.718000 27.684000 L 164.718000 21.491000 L 167.600000 21.491000 L 167.600000 20.666000 L 163.893000 20.666000 Z " fill="rgb(0, 0, 0)" fill-opacity="1.000000" />
<path d="M 168.000000 21.502000 L 174.600000 21.502000 L 174.600000 20.677000 L 168.000000 20.677000 Z " fill="rgb(0, 0, 0)" fill-opacity="1.000000" />
<path d="M 175.000000 21.502000 L 181.600000 21.502000 L 181.600000 20.677000 L 175.000000 20.677000 Z " fill="rgb(0, 0, 0)" fill-opacity="1.000000" />
<path d="M 182.000000 21.502000 L 188.600000 21.502000 L 188.600000 20.677000 L 182.000000 20.677000 Z " fill="rgb(0, 0, 0)" fill-opacity="1.000000" />
<path d="M 189.000000 21.502000 L 195.600000 21.502000 L 195.600000 20.677000 L 189.000000 20.677000 Z " fill="rgb(0, 0, 0)" fill-opacity="1.000000" />
<path d="M 196.000000 21.502000 L 202.600000 21.502000 L 202.600000 20.677000 L 196.000000 20.677000 Z " fill="rgb(0, 0, 0)" fill-opacity="1.000000" />
<path d="M 203.000000 21.502000 L 209.600000 21.502000 L 209.600000 20.677000 L 203.000000 20.677000 Z " fill="rgb(0, 0, 0)" fill-opacity="1.000000" />
<path d="M 210.000000 21.502000 L 216.600000 21.502000 L 216.600000 20.677000 L 210.000000 20.677000 Z " fill="rgb(0, 0, 0)" fill-opacity="1.000000" />
<path d="M 217.000000 21.502000 L 223.600000 21.502000 L 223.600000 20.677000 L 217.000000 20.677000 Z " fill="rgb(0, 0, 0)" fill-opacity="1.000000" />
<path d="M 224.000000 21.502000 L 230.600000 21.502000 L 230.600000 20.677000 L 224.000000 20.677000 Z " fill="rgb(0, 0, 0)" fill-opacity="1.000000" />
<path d="M 231.000000 21.502000 L 237.600000 21.502000 L 237.600000 20.677000 L 231.000000 20.677000 Z " fill="rgb(0, 0, 0)" fill-opacity="1.000000" />
<path d="M 238.000000 21.502000 L 244.600000 21.502000 L 244.600000 20.677000 L 238.000000 20.677000 Z " fill="rgb(0, 0, 0)" fill-opacity="1.000000" />
<path d="M 245.000000 21.502000 L 251.600000 21.502000 L 251.600000 20.677000 L 245.000000 20.677000 Z " fill="rgb(0, 0, 0)" fill-opacity="1.000000" />
<path d="M 252.000000 21.502000 L 258.600000 21.502000 L 258.600000 20.677000 L 252.000000 20.677000 Z " fill="rgb(0, 0, 0)" fill-opacity="1.000000" />
<path d="M 259.000000 21.502000 L 265.600000 21.502000 L 265.600000 20.677000 L 259.000000 20.677000 Z " fill="rgb(0, 0, 0)" fill-opacity="1.000000" />
<path d="M 266.000000 21.502000 L 272.600000 21.502000 L 272.600000 20.677000 L 266.000000 20.677000 Z " fill="rgb(0, 0, 0)" fill-opacity="1.000000" />
<path d="M 273.000000 21.502000 L 279.600000 21.502000 L 279.600000 20.677000 L 273.000000 20.677000 Z " fill="rgb(0, 0, 0)" fill-opacity="1.000000" />
<path d="M 280.000000 21.502000 L 286.600000 21.502000 L 286.600000 20.677000 L 280.000000 20.677000 Z " fill="rgb(0, 0, 0)" fill-opacity="1.000000" />
<path d="M 287.000000 21.502000 L 293.600000 21.502000 L 293.600000 20.677000 L 287.000000 20.677000 Z " fill="rgb(0, 0, 0)" fill-opacity="1.000000" />
<path d="M 294.000000 21.502000 L 300.600000 21.502000 L 300.600000 20.677000 L 294.000000 20.677000 Z " fill="rgb(0, 0, 0)" fill-opacity="1.000000" />
<path d="M 301.000000 21.502000 L 307.600000 21.502000 L 307.600000 20.677000 L 301.000000 20.677000 Z " fill="rgb(0, 0, 0)" fill-opacity="1.000000" />
<path d="M 308.000000 21.502000 L 314.600000 21.502000 L 314.600000 20.677000 L 308.000000 20.677000 Z " fill="rgb(0, 0, 0)" fill-opacity="1.000000" />
<path d="M 315.000000 21.502000 L 321.600000 21.502000 L 321.600000 20.677000 L 315.000000 20.677000 Z " fill="rgb(0, 0, 0)" fill-opacity="1.000000" />
<path d="M 322.000000 21.502000 L 328.600000 21.502000 L 328.600000 20.677000 L 322.000000 20.677000 Z " fill="rgb(0, 0, 0)" fill-opacity="1.000000" />
<path d="M 329.000000 21.502000 L 335.600000 21.502000 L 335.600000 20.677000 L 329.000000 20.677000 Z " fill="rgb(0, 0, 0)" fill-opacity="1.000000" />
<path d="M 336.000000 21.502000 L 342.600000 21.502000 L 342.600000 20.677000 L 336.000000 20.677000 Z " fill="rgb(0, 0, 0)" fill-opacity="1.000000" />
<path d="M 343.000000 21.502000 L 349.600000 21.502000 L 349.600000 20.677000 L 343.000000 20.677000 Z " fill="rgb(0, 0, 0)" fill-opacity="1.000000" />
<path d="M 350.000000 21.502000 L 356.600000 21.502000 L 356.600000 20.677000 L 350.000000 20.677000 Z " fill="rgb(0, 0, 0)" fill-opacity="1.000000" />
<path d="M 357.000000 21.502000 L 363.600000 21.502000 L 363.600000 20.677000 L 357.000000 20.677000 Z " fill="rgb(0, 0, 0)" fill-opacity="1.000000" />
<path d="M 364.000000 21.502000 L 370.600000 21.502000 L 370.600000 20.677000 L 364.000000 20.677000 Z " fill="rgb(0, 0, 0)" fill-opacity="1.000000" />
<path d="M 371.000000 21.502000 L 377.600000 21.502000 L 377.600000 20.677000 L 371.000000 20.677000 Z " fill="rgb(0, 0, 0)" fill-opacity="1.000000" />
<path d="M 378.000000 21.502000 L 384.600000 21.502000 L 384.600000 20.677000 L 378.000000 20.677000 Z " fill="rgb(0, 0, 0)" fill-opacity="1.000000" />
<path d="M 385.000000 21.502000 L 391.600000 21.502000 L 391.600000 20.677000 L 385.000000 20.677000 Z " fill="rgb(0, 0, 0)" fill-opacity="1.000000" />
<path d="M 392.000000 21.502000 L 398.600000 21.502000 L 398.600000 20.677000 L 392.000000 20.677000 Z " fill="rgb(0, 0, 0)" fill-opacity="1.000000" />
<path d="M 399.000000 21.502000 L 405.600000 21.502000 L 405.600000 20.677000 L 399.000000 20.677000 Z " fill="rgb(0, 0, 0)" fill-opacity="1.000000" />
<path d="M 406.000000 21.502000 L 412.600000 21.502000 L 412.600000 20.677000 L 406.000000 20.677000 Z " fill="rgb(0, 0, 0)" fill-opacity="1.000000" />
<path d="M 413.000000 21.502000 L 419.600000 21.502000 L 419.600000 20.677000 L 413.000000 20.677000 Z " fill="rgb(0, 0, 0)" fill-opacity="1.000000" />
<path d="M 420.000000 21.502000 L 426.600000 21.502000 L 426.600000 20.677000 L 420.000000 20.677000 Z " fill="rgb(0, 0, 0)" fill-opacity="1.000000" />
<path d="M 427.000000 21.502000 L 433.600000 21.502000 L 433.600000 20.677000 L 427.000000 20.677000 Z " fill="rgb(0, 0, 0)" fill-opacity="1.000000" />
<path d="M 434.000000 21.502000 L 440.600000 21.502000 L 440.600000 20.677000 L 434.000000 20.677000 Z " fill="rgb(0, 0, 0)" fill-opacity="1.000000" />
<path d="M 441.000000 21.502000 L 443.893000 21.502000 L 443.893000 27.684000 L 444.718000 27.684000 L 444.718000 20.677000 L 441.000000 20.677000 Z " fill="rgb(0, 0, 0)" fill-opacity="1.000000" />
<path d="M 448.715000 24.054000 L 453.885000 24.054000 C 454.050000 24.054000 454.127000 23.900000 454.050000 23.735000 L 451.509000 18.422000 C 451.410000 18.202000 451.201000 18.202000 451.091000 18.422000 L 448.550000 23.735000 C 448.462000 23.900000 448.550000 24.054000 448.715000 24.054000 Z " fill="rgb(0, 0, 0)" fill-opacity="1.000000" />
<path d="M 14.000000 7.502000 L 20.600000 7.502000 L 20.600000 6.677000 L 14.000000 6.677000 Z " fill="rgb(0, 0, 0)" fill-opacity="1.000000" />
<path d="M 28.000000 7.502000 L 34.600000 7.502000 L 34.600000 6.677000 L 28.000000 6.677000 Z " fill="rgb(0, 0, 0)" fill-opacity="1.000000" />
<path d="M 42.000000 7.502000 L 48.600000 7.502000 L 48.600000 6.677000 L 42.000000 6.677000 Z " fill="rgb(0, 0, 0)" fill-opacity="1.000000" />
<path d="M 56.000000 7.502000 L 62.600000 7.502000 L 62.600000 6.677000 L 56.000000 6.677000 Z " fill="rgb(0, 0, 0)" fill-opacity="1.000000" />
<path d="M 70.000000 7.502000 L 76.600000 7.502000 L 76.600000 6.677000 L 70.000000 6.677000 Z " fill="rgb(0, 0, 0)" fill-opacity="1.000000" />
<path d="M 84.000000 7.502000 L 90.600000 7.502000 L 90.600000 6.677000 L 84.000000 6.677000 Z " fill="rgb(0, 0, 0)" fill-opacity="1.000000" />
<path d="M 98.000000 7.502000 L 104.600000 7.502000 L 104.600000 6.677000 L 98.000000 6.677000 Z " fill="rgb(0, 0, 0)" fill-opacity="1.000000" />
<path d="M 112.000000 7.502000 L 118.600000 7.502000 L 118.600000 6.677000 L 112.000000 6.677000 Z " fill="rgb(0, 0, 0)" fill-opacity="1.000000" />
<path d="M 126.000000 7.502000 L 132.600000 7.502000 L 132.600000 6.677000 L 126.000000 6.677000 Z " fill="rgb(0, 0, 0)" fill-opacity="1.000000" />
<path d="M 140.000000 7.502000 L 146.600000 7.502000 L 146.600000 6.677000 L 140.000000 6.677000 Z " fill="rgb(0, 0, 0)" fill-opacity="1.000000" />
<path d="M 154.000000 7.502000 L 160.600000 7.502000 L 160.600000 6.677000 L 154.000000 6.677000 Z " fill="rgb(0, 0, 0)" fill-opacity="1.000000" />
<path d="M 168.000000 7.502000 L 174.600000 7.502000 L 174.600000 6.677000 L 168.000000 6.677000 Z " fill="rgb(0, 0, 0)" fill-opacity="1.000000" />
<path d="M 182.000000 7.502000 L 188.600000 7.502000 L 188.600000 6.677000 L 182.000000 6.677000 Z " fill="rgb(0, 0, 0)" fill-opacity="1.000000" />
<path d="M 196.000000 7.502000 L 202.600000 7.502000 L 202.600000 6.677000 L 196.000000 6.677000 Z " fill="rgb(0, 0, 0)" fill-opacity="1.000000" />
<path d="M 210.000000 7.502000 L 216.600000 7.502000 L 216.600000 6.677000 L 210.000000 6.677000 Z " fill="rgb(0, 0, 0)" fill-opacity="1.000000" />
<path d="M 224.000000 7.502000 L 230.600000 7.502000 L 230.600000 6.677000 L 224.000000 6.677000 Z " fill="rgb(0, 0, 0)" fill-opacity="1.000000" />
<path d="M 238.000000 7.502000 L 244.600000 7.502000 L 244.600000 6.677000 L 238.000000 6.677000 Z " fill="rgb(0, 0, 0)" fill-opacity="1.000000" />
<path d="M 252.000000 7.502000 L 258.600000 7.502000 L 258.600000 6.677000 L 252.000000 6.677000 Z " fill="rgb(0, 0, 0)" fill-opacity="1.000000" />
<path d="M 266.000000 7.502000 L 272.600000 7.502000 L 272.600000 6.677000 L 266.000000 6.677000 Z " fill="rgb(0, 0, 0)" fill-opacity="1.000000" />
<path d="M 280.000000 7.502000 L 286.600000 7.502000 L 286.600000 6.677000 L 280.000000 6.677000 Z " fill="rgb(0, 0, 0)" fill-opacity="1.000000" />
<path d="M 294.000000 7.502000 L 300.600000 7.502000 L 300.600000 6.677000 L 294.000000 6.677000 Z " fill="rgb(0, 0, 0)" fill-opacity="1.000000" />
<path d="M 308.000000 7.502000 L 314.600000 7.502000 L 314.600000 6.677000 L 308.000000 6.677000 Z " fill="rgb(0, 0, 0)" fill-opacity="1.000000" />
<path d="M 322.000000 7.502000 L 328.600000 7.502000 L 328.600000 6.677000 L 322.000000 6.677000 Z " fill="rgb(0, 0, 0)" fill-opacity="1.000000" />
<path d="M 336.000000 7.502000 L 342.600000 7.502000 L 342.600000 6.677000 L 336.000000 6.677000 Z " fill="rgb(0, 0, 0)" fill-opacity="1.000000" />
<path d="M 350.000000 7.502000 L 356.600000 7.502000 L 356.600000 6.677000 L 350.000000 6.677000 Z " fill="rgb(0, 0, 0)" fill-opacity="1.000000" />
<path d="M 364.000000 7.502000 L 370.600000 7.502000 L 370.600000 6.677000 L 364.000000 6.677000 Z " fill="rgb(0, 0, 0)" fill-opacity="1.000000" />
<path d="M 378.000000 7.502000 L 384.600000 7.502000 L 384.600000 6.677000 L 378.000000 6.677000 Z " fill="rgb(0, 0, 0)" fill-opacity="1.000000" />
<path d="M 392.000000 7.502000 L 398.600000 7.502000 L 398.600000 6.677000 L 392.000000 6.677000 Z " fill="rgb(0, 0, 0)" fill-opacity="1.000000" />
<path d="M 406.000000 7.502000 L 412.600000 7.502000 L 412.600000 6.677000 L 406.000000 6.677000 Z " fill="rgb(0, 0, 0)" fill-opacity="1.000000" />
<path d="M 420.000000 7.502000 L 426.600000 7.502000 L 426.600000 6.677000 L 420.000000 6.677000 Z " fill="rgb(0, 0, 0)" fill-opacity="1.000000" />
<path d="M 434.000000 7.502000 L 440.600000 7.502000 L 440.600000 6.677000 L 434.000000 6.677000 Z " fill="rgb(0, 0, 0)" fill-opacity="1.000000" />
<path d="M 448.000000 7.502000 L 454.600000 7.502000 L 454.600000 6.677000 L 448.000000 6.677000 Z " fill="rgb(0, 0, 0)" fill-opacity="1.000000" />
</svg>