<svg xmlns="http://www.w3.org/2000/svg" viewBox="0 0 554 295"><path fill="currentColor" d="M0 7.502h6.6v-.825H0Zm2.893 20.182h.825v-6.193H6.6v-.825H2.893Zm0 14h.825v-13.2h-.825Zm0 14h.825v-13.2h-.825Zm0 14h.825v-13.2h-.825Zm0 14h.825v-13.2h-.825Zm0 14h.825v-13.2h-.825Zm0 14h.825v-13.2h-.825Zm0 14h.825v-13.2h-.825Zm0 14h.825v-13.2h-.825Zm0 14h.825v-13.2h-.825Zm0 14h.825v-13.2h-.825Zm0 14h.825v-6.182H6.6v-.825H3.718v-6.193h-.825v6.193h-.011v.825h.011Zm0 14h.825v-13.2h-.825Zm0 14h.825v-13.2h-.825Zm0 14h.825v-13.2h-.825Zm0 14h.825v-13.2h-.825Zm0 14h.825v-13.2h-.825Zm0 14h.825v-13.2h-.825Zm0 14h.825v-13.2h-.825Zm0 7.818H6.6v-.825H3.718v-6.193h-.825Zm4.107 0h6.6v-.825H7Zm7 0h6.6v-.825H14Zm7 0h6.6v-.825H21Zm7 0h6.6v-.825H28Zm7 0h6.6v-.825H35Zm7 0h6.6v-.825H42Zm7 0h6.6v-.825H49Zm7 0h6.6v-.825H56Zm7 0h6.6v-.825H63Zm7 0h6.6v-.825H70Zm7 0h6.6v-.825H77Zm7 0h6.6v-.825H84Zm7 0h6.6v-.825H91Zm7 0h6.6v-.825H98Zm7 0h6.6v-.825H105Zm7 0h6.6v-.825H112Zm7 0h6.6v-.825H119Zm7 0h6.6v-.825H126Zm7 0h6.6v-.825H133Zm7 0h6.6v-.825H140Zm7 0h6.6v-.825H147Zm7 0h6.6v-.825H154Zm7 0h6.6v-.825H161Zm7 0h6.6v-.825H168Zm7 0h6.6v-.825H175Zm7 0h6.6v-.825H182Zm7 0h6.6v-.825H189Zm7 0h6.6v-.825H196Zm7 0h6.6v-.825H203Zm7 0h6.6v-.825H210Zm7 0h6.6v-.825H217Zm7 0h6.6v-.825H224Zm7 0h6.6v-.825H231Zm7 0h6.6v-.825H238Zm7 0h6.6v-.825H245Zm7 0h6.6v-.825H252Zm7 0h6.6v-.825H259Zm7 0h6.6v-.825H266Zm7 0h3.718v-7.018h-.825v6.193H273Zm2.893-91.818h.825v-13.2h-.825Zm0 14h.825v-13.2h-.825Zm0 14h.825v-13.2h-.825Zm0 14h.825v-13.2h-.825Zm0 14h.825v-13.2h-.825Zm0 14h.825v-13.2h-.825Zm0 14h.825v-13.2h-.825ZM14 175.502h6.6v-.825H14Zm14 0h6.6v-.825H28Zm14 0h6.6v-.825H42Zm14 0h6.6v-.825H56Zm14 0h6.6v-.825H70Zm14 0h6.6v-.825H84Zm14 0h6.6v-.825H98Zm14 0h6.6v-.825H112Zm14 0h6.6v-.825H126Zm14 0h6.6v-.825H140Zm14 0h6.6v-.825H154Zm14 0h6.6v-.825H168Zm14 0h6.6v-.825H182Zm14 0h6.6v-.825H196Zm14 0h6.6v-.825H210Zm14 0h6.6v-.825H224Zm14 0h6.6v-.825H238Zm14 0h6.6v-.825H252Zm14 0h6.6v-.825H266Zm9.893 6.182h.825v-13.2h-.825Zm4.107-6.182h6.6v-.825H280Zm14 0h6.6v-.825H294Zm14 0h6.6v-.825H308Zm14 0h6.6v-.825H322Zm14 0h6.6v-.825H336Zm14 0h6.6v-.825H350Zm14 0h6.6v-.825H364Zm14 0h6.6v-.825H378Zm14 0h6.6v-.825H392Zm14 0h6.6v-.825H406Zm14 0h6.6v-.825H420Zm14 0h6.6v-.825H434Zm14 0h6.6v-.825H448Zm-347.195-31.366h1.21v-1.21h-1.21ZM99.243 151h4.543v-.781h-1.793v-4.917h-2.64v.781h1.793v4.136h-1.903Zm176.65 16.684h.825v-13.2h-.825Zm175.198-3.949c.11.22.319.22.418 0l2.541-5.313c.088-.187-.022-.319-.165-.319h-5.17c-.165 0-.253.154-.165.319ZM105.539 151h.847v-2.915c0-1.628.165-2.079.803-2.079.572 0 .737.352.726 1.617l-.022 3.377h.858v-2.915c0-1.628.176-2.079.792-2.079.55 0 .693.352.693 1.617V151h.847v-3.377c0-1.914-.264-2.431-1.276-2.431-.605 0-.847.187-1.1.869h-.055c-.143-.682-.374-.869-1.078-.869s-.957.187-1.21.869h-.055v-.759h-.77Zm11.147 0h.792v-3.729c0-1.705-.407-2.079-2.233-2.079-1.639 0-2.002.297-2.002 1.639h.847c.022-.704.242-.858 1.188-.858 1.155 0 1.408.231 1.408 1.298v.242h-1.089c-2.09 0-2.552.352-2.552 1.947 0 1.353.341 1.65 1.881 1.65 1.133 0 1.441-.154 1.705-.847h.055Zm-.011-2.717c0 1.661-.297 2.024-1.639 2.024-.924 0-1.133-.176-1.133-.957 0-.88.264-1.067 1.474-1.067Zm3.414 3.399c.088 1.375.484 1.683 2.2 1.683 1.947 0 2.376-.407 2.387-2.255v-5.808h-.847v.748h-.055c-.264-.704-.55-.858-1.584-.858-1.892 0-2.31.528-2.31 2.915 0 2.376.418 2.893 2.299 2.893 1.045 0 1.331-.154 1.606-.869h.055v.858c-.022 1.309-.308 1.595-1.606 1.595-1.023 0-1.243-.165-1.243-.902Zm2.211-1.474c-1.265 0-1.54-.374-1.54-2.101 0-1.738.275-2.123 1.54-2.123s1.54.385 1.54 2.123c0 1.727-.275 2.101-1.54 2.101m8.441-.693c-.209.627-.451.77-1.331.77-1.309 0-1.606-.308-1.65-1.716h3.971c.033-2.772-.407-3.377-2.442-3.377-1.936 0-2.365.528-2.365 2.948 0 2.431.451 2.97 2.519 2.97 1.54 0 1.936-.286 2.178-1.595Zm-2.97-1.738c.033-1.441.319-1.76 1.562-1.76 1.221 0 1.507.319 1.551 1.76Zm8.804 3.223h.88v-7.48h-1.034l-2.233 1.606v1.067l2.387-1.705Zm15.628.539c-1.155-.132-1.551-.55-1.771-1.782a13.3 13.3 0 0 1-.176-2.178c0-.682.055-1.507.176-2.167.22-1.21.627-1.639 1.771-1.705l.011-.935c-1.221.033-2.211.253-2.629 2.354-.143.715-.209 1.606-.209 2.464 0 .935.077 1.837.198 2.497.297 1.628.946 2.365 2.64 2.387Zm2.809-.539h4.774v-.836h-3.861v-.121c1.936-1.716 2.464-2.244 2.992-2.871.583-.682.704-1.012.704-1.771 0-1.628-.429-1.991-2.365-1.991-1.859 0-2.299.341-2.398 1.892h.902c.077-.88.352-1.067 1.496-1.067 1.221 0 1.485.209 1.485 1.155 0 .539-.088.759-.473 1.243-.506.627-1.089 1.177-3.256 3.058Zm6.912.902h.924l3.828-9.482h-.924Zm9.651-.902h.88v-7.48h-1.034l-2.233 1.606v1.067l2.387-1.705Zm4.811 1.474c1.496-.022 2.244-.605 2.618-2.409.154-.748.22-1.617.22-2.464 0-.682-.055-1.628-.22-2.431-.363-1.793-1.1-2.354-2.618-2.398l.011.935c1.001.055 1.529.462 1.771 1.727.132.682.165 1.496.165 2.167 0 .77-.055 1.529-.165 2.134-.231 1.265-.682 1.683-1.771 1.804Zm99.507 1.21h.825v-13.2h-.825Zm175 0h.825v-13.2h-.825Zm-175-112h.825v-13.2h-.825Zm0 14h.825v-13.2h-.825Zm0 14h.825v-13.2h-.825Zm0 14h.825v-13.2h-.825Zm0 14h.825v-13.2h-.825Zm0 14h.825v-13.2h-.825Zm0 14h.825v-13.2h-.825Zm0 14h.825v-13.2h-.825Zm175-98h.825v-13.2h-.825Zm0 14h.825v-13.2h-.825Zm0 14h.825v-13.2h-.825Zm0 14h.825v-13.2h-.825Zm0 14h.825v-13.2h-.825Zm0 14h.825v-13.2h-.825Zm0 14h.825v-13.2h-.825Zm0 14h.825v-13.2h-.825ZM469.539 95h.847v-2.915c0-1.628.165-2.079.803-2.079.572 0 .737.352.726 1.617L471.893 95h.858v-2.915c0-1.628.176-2.079.792-2.079.55 0 .693.352.693 1.617V95h.847v-3.377c0-1.914-.264-2.431-1.276-2.431-.605 0-.847.187-1.1.869h-.055c-.143-.682-.374-.869-1.078-.869s-.957.187-1.21.869h-.055v-.759h-.77Zm11.147 0h.792v-3.729c0-1.705-.407-2.079-2.233-2.079-1.639 0-2.002.297-2.002 1.639h.847c.022-.704.242-.858 1.188-.858 1.155 0 1.408.231 1.408 1.298v.242h-1.089c-2.09 0-2.552.352-2.552 1.947 0 1.353.341 1.65 1.881 1.65 1.133 0 1.441-.154 1.705-.847h.055Zm-.011-2.717c0 1.661-.297 2.024-1.639 2.024-.924 0-1.133-.176-1.133-.957 0-.88.264-1.067 1.474-1.067ZM483.792 95h1.045l1.441-2.233h.033L487.763 95h1.045l-1.925-2.871 1.892-2.827h-1.056l-1.386 2.233h-.022l-1.386-2.233h-1.045l1.848 2.827Zm7.517-2.926h3.982v-.902h-3.982ZM498.034 95h.88v-2.915c0-1.716.275-2.09 1.529-2.09 1.023 0 1.254.242 1.254 1.375V95h.88v-3.63c0-1.782-.341-2.178-1.914-2.178-1.078 0-1.386.176-1.694.979h-.055v-3.245h-.88Zm10.707-1.485c-.209.627-.451.77-1.331.77-1.309 0-1.606-.308-1.65-1.716h3.971c.033-2.772-.407-3.377-2.442-3.377-1.936 0-2.365.528-2.365 2.948 0 2.431.451 2.97 2.519 2.97 1.54 0 1.936-.286 2.178-1.595Zm-2.97-1.738c.033-1.441.319-1.76 1.562-1.76 1.221 0 1.507.319 1.551 1.76Zm8.034-3.641h1.21v-1.21h-1.21ZM512.243 95h4.543v-.781h-1.793v-4.917h-2.64v.781h1.793v4.136h-1.903Zm6.846.682c.088 1.375.484 1.683 2.2 1.683 1.947 0 2.376-.407 2.387-2.255v-5.808h-.847v.748h-.055c-.264-.704-.55-.858-1.584-.858-1.892 0-2.31.528-2.31 2.915 0 2.376.418 2.893 2.299 2.893 1.045 0 1.331-.154 1.606-.869h.055v.858c-.022 1.309-.308 1.595-1.606 1.595-1.023 0-1.243-.165-1.243-.902Zm2.211-1.474c-1.265 0-1.54-.374-1.54-2.101 0-1.738.275-2.123 1.54-2.123s1.54.385 1.54 2.123c0 1.727-.275 2.101-1.54 2.101m4.734.792h.88v-2.915c0-1.716.275-2.09 1.529-2.09 1.023 0 1.254.242 1.254 1.375V95h.88v-3.63c0-1.782-.341-2.178-1.914-2.178-1.078 0-1.386.176-1.694.979h-.055v-3.245h-.88Zm6.824-4.939h1.496v3.212c0 1.507.319 1.837 1.782 1.837.396 0 .638-.022 1.364-.121v-.803c-.693.077-.913.099-1.177.099-.913 0-1.111-.187-1.111-1.056v-3.168h2.046v-.759h-2.035v-1.65l-.847.363v1.287h-1.298ZM7 21.502h6.6v-.825H7Zm7 0h6.6v-.825H14Zm7 0h6.6v-.825H21Zm7 0h6.6v-.825H28Zm7 0h6.6v-.825H35Zm7 0h6.6v-.825H42Zm7 0h6.6v-.825H49Zm7 0h6.6v-.825H56Zm7 0h6.6v-.825H63Zm7 0h6.6v-.825H70Zm7 0h6.6v-.825H77Zm7 0h6.6v-.825H84Zm7 0h6.6v-.825H91Zm7 0h6.6v-.825H98Zm7 0h6.6v-.825H105Zm7 0h6.6v-.825H112Zm7 0h6.6v-.825H119Zm7 0h6.6v-.825H126Zm7 0h6.6v-.825H133Zm7 0h6.6v-.825H140Zm7 0h6.6v-.825H147Zm7 0h6.6v-.825H154Zm7 0h6.6v-.825H161Zm7 0h6.6v-.825H168Zm7 0h6.6v-.825H175Zm7 0h6.6v-.825H182Zm7 0h6.6v-.825H189Zm7 0h6.6v-.825H196Zm7 0h6.6v-.825H203Zm7 0h6.6v-.825H210Zm7 0h6.6v-.825H217Zm7 0h6.6v-.825H224Zm7 0h6.6v-.825H231Zm7 0h6.6v-.825H238Zm7 0h6.6v-.825H245Zm7 0h6.6v-.825H252Zm7 0h6.6v-.825H259Zm7 0h6.6v-.825H266Zm7 0h2.893v6.182h.825v-7.007H273Zm175.715 2.552h5.17c.165 0 .242-.154.165-.319l-2.541-5.313c-.099-.22-.308-.22-.418 0l-2.541 5.313c-.088.165 0 .319.165.319M14 7.502h6.6v-.825H14Zm14 0h6.6v-.825H28Zm14 0h6.6v-.825H42Zm14 0h6.6v-.825H56Zm14 0h6.6v-.825H70Zm14 0h6.6v-.825H84Zm14 0h6.6v-.825H98Zm14 0h6.6v-.825H112Zm14 0h6.6v-.825H126Zm14 0h6.6v-.825H140Zm14 0h6.6v-.825H154Zm14 0h6.6v-.825H168Zm14 0h6.6v-.825H182Zm14 0h6.6v-.825H196Zm14 0h6.6v-.825H210Zm14 0h6.6v-.825H224Zm14 0h6.6v-.825H238Zm14 0h6.6v-.825H252Zm14 0h6.6v-.825H266Zm14 0h6.6v-.825H280Zm14 0h6.6v-.825H294Zm14 0h6.6v-.825H308Zm14 0h6.6v-.825H322Zm14 0h6.6v-.825H336Zm14 0h6.6v-.825H350Zm14 0h6.6v-.825H364Zm14 0h6.6v-.825H378Zm14 0h6.6v-.825H392Zm14 0h6.6v-.825H406Zm14 0h6.6v-.825H420Zm14 0h6.6v-.825H434Zm14 0h6.6v-.825H448Z"/></svg>