<svg xmlns="http://www.w3.org/2000/svg" version="1.1" width="554" height="295">
<path d="M 0.000000 7.502000 L 6.600000 7.502000 L 6.600000 6.677000 L 0.000000 6.677000 Z " fill="currentColor" fill-opacity="1.000000" />
<path d="M 2.893000 27.684000 L 3.718000 27.684000 L 3.718000 21.491000 L 6.600000 21.491000 L 6.600000 20.666000 L 2.893000 20.666000 Z " fill="currentColor" fill-opacity="1.000000" />
<path d="M 2.893000 41.684000 L 3.718000 41.684000 L 3.718000 28.484000 L 2.893000 28.484000 Z " fill="currentColor" fill-opacity="1.000000" />
<path d="M 2.893000 55.684000 L 3.718000 55.684000 L 3.718000 42.484000 L 2.893000 42.484000 Z " fill="currentColor" fill-opacity="1.000000" />
<path d="M 2.893000 69.684000 L 3.718000 69.684000 L 3.718000 56.484000 L 2.893000 56.484000 Z " fill="currentColor" fill-opacity="1.000000" />
<path d="M 2.893000 83.684000 L 3.718000 83.684000 L 3.718000 70.484000 L 2.893000 70.484000 Z " fill="currentColor" fill-opacity="1.000000" />
<path d="M 2.893000 97.684000 L 3.718000 97.684000 L 3.718000 84.484000 L 2.893000 84.484000 Z " fill="currentColor" fill-opacity="1.000000" />
<path d="M 2.893000 111.684000 L 3.718000 111.684000 L 3.718000 98.484000 L 2.893000 98.484000 Z " fill="currentColor" fill-opacity="1.000000" />
<path d="M 2.893000 125.684000 L 3.718000 125.684000 L 3.718000 112.484000 L 2.893000 112.484000 Z " fill="currentColor" fill-opacity="1.000000" />
<path d="M 2.893000 139.684000 L 3.718000 139.684000 L 3.718000 126.484000 L 2.893000 126.484000 Z " fill="currentColor" fill-opacity="1.000000" />
<path d="M 2.893000 153.684000 L 3.718000 153.684000 L 3.718000 140.484000 L 2.893000 140.484000 Z " fill="currentColor" fill-opacity="1.000000" />
<path d="M 2.893000 167.684000 L 3.718000 167.684000 L 3.718000 154.484000 L 2.893000 154.484000 Z " fill="currentColor" fill-opacity="1.000000" />
<path d="M 2.893000 181.684000 L 3.718000 181.684000 L 3.718000 175.502000 L 6.600000 175.502000 L 6.600000 174.677000 L 3.718000 174.677000 L 3.718000 168.484000 L 2.893000 168.484000 L 2.893000 174.677000 L 2.882000 174.677000 L 2.882000 175.502000 L 2.893000 175.502000 Z " fill="currentColor" fill-opacity="1.000000" />
<path d="M 2.893000 195.684000 L 3.718000 195.684000 L 3.718000 182.484000 L 2.893000 182.484000 Z " fill="currentColor" fill-opacity="1.000000" />
<path d="M 2.893000 209.684000 L 3.718000 209.684000 L 3.718000 196.484000 L 2.893000 196.484000 Z " fill="currentColor" fill-opacity="1.000000" />
<path d="M 2.893000 223.684000 L 3.718000 223.684000 L 3.718000 210.484000 L 2.893000 210.484000 Z " fill="currentColor" fill-opacity="1.000000" />
<path d="M 2.893000 237.684000 L 3.718000 237.684000 L 3.718000 224.484000 L 2.893000 224.484000 Z " fill="currentColor" fill-opacity="1.000000" />
<path d="M 2.893000 251.684000 L 3.718000 251.684000 L 3.718000 238.484000 L 2.893000 238.484000 Z " fill="currentColor" fill-opacity="1.000000" />
<path d="M 2.893000 265.684000 L 3.718000 265.684000 L 3.718000 252.484000 L 2.893000 252.484000 Z " fill="currentColor" fill-opacity="1.000000" />
<path d="M 2.893000 279.684000 L 3.718000 279.684000 L 3.718000 266.484000 L 2.893000 266.484000 Z " fill="currentColor" fill-opacity="1.000000" />
<path d="M 2.893000 287.502000 L 6.600000 287.502000 L 6.600000 286.677000 L 3.718000 286.677000 L 3.718000 280.484000 L 2.893000 280.484000 Z " fill="currentColor" fill-opacity="1.000000" />
<path d="M 7.000000 287.502000 L 13.600000 287.502000 L 13.600000 286.677000 L 7.000000 286.677000 Z " fill="currentColor" fill-opacity="1.000000" />
<path d="M 14.000000 287.502000 L 20.600000 287.502000 L 20.600000 286.677000 L 14.000000 286.677000 Z " fill="currentColor" fill-opacity="1.000000" />
<path d="M 21.000000 287.502000 L 27.600000 287.502000 L 27.600000 286.677000 L 21.000000 286.677000 Z " fill="currentColor" fill-opacity="1.000000" />
<path d="M 28.000000 287.502000 L 34.600000 287.502000 L 34.600000 286.677000 L 28.000000 286.677000 Z " fill="currentColor" fill-opacity="1.000000" />
<path d="M 35.000000 287.502000 L 41.600000 287.502000 L 41.600000 286.677000 L 35.000000 286.677000 Z " fill="currentColor" fill-opacity="1.000000" />
<path d="M 42.000000 287.502000 L 48.600000 287.502000 L 48.600000 286.677000 L 42.000000 286.677000 Z " fill="currentColor" fill-opacity="1.000000" />
<path d="M 49.000000 287.502000 L 55.600000 287.502000 L 55.600000 286.677000 L 49.000000 286.677000 Z " fill="currentColor" fill-opacity="1.000000" />
<path d="M 56.000000 287.502000 L 62.600000 287.502000 L 62.600000 286.677000 L 56.000000 286.677000 Z " fill="currentColor" fill-opacity="1.000000" />
<path d="M 63.000000 287.502000 L 69.600000 287.502000 L 69.600000 286.677000 L 63.000000 286.677000 Z " fill="currentColor" fill-opacity="1.000000" />
<path d="M 70.000000 287.502000 L 76.600000 287.502000 L 76.600000 286.677000 L 70.000000 286.677000 Z " fill="currentColor" fill-opacity="1.000000" />
<path d="M 77.000000 287.502000 L 83.600000 287.502000 L 83.600000 286.677000 L 77.000000 286.677000 Z " fill="currentColor" fill-opacity="1.000000" />
<path d="M 84.000000 287.502000 L 90.600000 287.502000 L 90.600000 286.677000 L 84.000000 286.677000 Z " fill="currentColor" fill-opacity="1.000000" />
<path d="M 91.000000 287.502000 L 97.600000 287.502000 L 97.600000 286.677000 L 91.000000 286.677000 Z " fill="currentColor" fill-opacity="1.000000" />
<path d="M 98.000000 287.502000 L 104.600000 287.502000 L 104.600000 286.677000 L 98.000000 286.677000 Z " fill="currentColor" fill-opacity="1.000000" />
<path d="M 105.000000 287.502000 L 111.600000 287.502000 L 111.600000 286.677000 L 105.000000 286.677000 Z " fill="currentColor" fill-opacity="1.000000" />
<path d="M 112.000000 287.502000 L 118.600000 287.502000 L 118.600000 286.677000 L 112.000000 286.677000 Z " fill="currentColor" fill-opacity="1.000000" />
<path d="M 119.000000 287.502000 L 125.600000 287.502000 L 125.600000 286.677000 L 119.000000 286.677000 Z " fill="currentColor" fill-opacity="1.000000" />
<path d="M 126.000000 287.502000 L 132.600000 287.502000 L 132.600000 286.677000 L 126.000000 286.677000 Z " fill="currentColor" fill-opacity="1.000000" />
<path d="M 133.000000 287.502000 L 139.600000 287.502000 L 139.600000 286.677000 L 133.000000 286.677000 Z " fill="currentColor" fill-opacity="1.000000" />
<path d="M 140.000000 287.502000 L 146.600000 287.502000 L 146.600000 286.677000 L 140.000000 286.677000 Z " fill="currentColor" fill-opacity="1.000000" />
<path d="M 147.000000 287.502000 L 153.600000 287.502000 L 153.600000 286.677000 L 147.000000 286.677000 Z " fill="currentColor" fill-opacity="1.000000" />
<path d="M 154.000000 287.502000 L 160.600000 287.502000 L 160.600000 286.677000 L 154.000000 286.677000 Z " fill="currentColor" fill-opacity="1.000000" />
<path d="M 161.000000 287.502000 L 167.600000 287.502000 L 167.600000 286.677000 L 161.000000 286.677000 Z " fill="currentColor" fill-opacity="1.000000" />
<path d="M 168.000000 287.502000 L 174.600000 287.502000 L 174.600000 286.677000 L 168.000000 286.677000 Z " fill="currentColor" fill-opacity="1.000000" />
<path d="M 175.000000 287.502000 L 181.600000 287.502000 L 181.600000 286.677000 L 175.000000 286.677000 Z " fill="currentColor" fill-opacity="1.000000" />
<path d="M 182.000000 287.502000 L 188.600000 287.502000 L 188.600000 286.677000 L 182.000000 286.677000 Z " fill="currentColor" fill-opacity="1.000000" />
<path d="M 189.000000 287.502000 L 195.600000 287.502000 L 195.600000 286.677000 L 189.000000 286.677000 Z " fill="currentColor" fill-opacity="1.000000" />
<path d="M 196.000000 287.502000 L 202.600000 287.502000 L 202.600000 286.677000 L 196.000000 286.677000 Z " fill="currentColor" fill-opacity="1.000000" />
<path d="M 203.000000 287.502000 L 209.600000 287.502000 L 209.600000 286.677000 L 203.000000 286.677000 Z " fill="currentColor" fill-opacity="1.000000" />
<path d="M 210.000000 287.502000 L 216.600000 287.502000 L 216.600000 286.677000 L 210.000000 286.677000 Z " fill="currentColor" fill-opacity="1.000000" />
<path d="M 217.000000 287.502000 L 223.600000 287.502000 L 223.600000 286.677000 L 217.000000 286.677000 Z " fill="currentColor" fill-opacity="1.000000" />
<path d="M 224.000000 287.502000 L 230.600000 287.502000 L 230.600000 286.677000 L 224.000000 286.677000 Z " fill="currentColor" fill-opacity="1.000000" />
<path d="M 231.000000 287.502000 L 237.600000 287.502000 L 237.600000 286.677000 L 231.000000 286.677000 Z " fill="currentColor" fill-opacity="1.000000" />
<path d="M 238.000000 287.502000 L 244.600000 287.502000 L 244.600000 286.677000 L 238.000000 286.677000 Z " fill="currentColor" fill-opacity="1.000000" />
<path d="M 245.000000 287.502000 L 251.600000 287.502000 L 251.600000 286.677000 L 245.000000 286.677000 Z " fill="currentColor" fill-opacity="1.000000" />
<path d="M 252.000000 287.502000 L 258.600000 287.502000 L 258.600000 286.677000 L 252.000000 286.677000 Z " fill="currentColor" fill-opacity="1.000000" />
<path d="M 259.000000 287.502000 L 265.600000 287.502000 L 265.600000 286.677000 L 259.000000 286.677000 Z " fill="currentColor" fill-opacity="1.000000" />
<path d="M 266.000000 287.502000 L 272.600000 287.502000 L 272.600000 286.677000 L 266.000000 286.677000 Z " fill="currentColor" fill-opacity="1.000000" />
<path d="M 273.000000 287.502000 L 276.718000 287.502000 L 276.718000 280.484000 L 275.893000 280.484000 L 275.893000 286.677000 L 273.000000 286.677000 Z " fill="currentColor" fill-opacity="1.000000" />
<path d="M 275.893000 195.684000 L 276.718000 195.684000 L 276.718000 182.484000 L 275.893000 182.484000 Z " fill="currentColor" fill-opacity="1.000000" />
<path d="M 275.893000 209.684000 L 276.718000 209.684000 L 276.718000 196.484000 L 275.893000 196.484000 Z " fill="currentColor" fill-opacity="1.000000" />
<path d="M 275.893000 223.684000 L 276.718000 223.684000 L 276.718000 210.484000 L 275.893000 210.484000 Z " fill="currentColor" fill-opacity="1.000000" />
<path d="M 275.893000 237.684000 L 276.718000 237.684000 L 276.718000 224.484000 L 275.893000 224.484000 Z " fill="currentColor" fill-opacity="1.000000" />
<path d="M 275.893000 251.684000 L 276.718000 251.684000 L 276.718000 238.484000 L 275.893000 238.484000 Z " fill="currentColor" fill-opacity="1.000000" />
<path d="M 275.893000 265.684000 L 276.718000 265.684000 L 276.718000 252.484000 L 275.893000 252.484000 Z " fill="currentColor" fill-opacity="1.000000" />
<path d="M 275.893000 279.684000 L 276.718000 279.684000 L 276.718000 266.484000 L 275.893000 266.484000 Z " fill="currentColor" fill-opacity="1.000000" />
<path d="M 14.000000 175.502000 L 20.600000 175.502000 L 20.600000 174.677000 L 14.000000 174.677000 Z " fill="currentColor" fill-opacity="1.000000" />
<path d="M 28.000000 175.502000 L 34.600000 175.502000 L 34.600000 174.677000 L 28.000000 174.677000 Z " fill="currentColor" fill-opacity="1.000000" />
<path d="M 42.000000 175.502000 L 48.600000 175.502000 L 48.600000 174.677000 L 42.000000 174.677000 Z " fill="currentColor" fill-opacity="1.000000" />
<path d="M 56.000000 175.502000 L 62.600000 175.502000 L 62.600000 174.677000 L 56.000000 174.677000 Z " fill="currentColor" fill-opacity="1.000000" />
<path d="M 70.000000 175.502000 L 76.600000 175.502000 L 76.600000 174.677000 L 70.000000 174.677000 Z " fill="currentColor" fill-opacity="1.000000" />
<path d="M 84.000000 175.502000 L 90.600000 175.502000 L 90.600000 174.677000 L 84.000000 174.677000 Z " fill="currentColor" fill-opacity="1.000000" />
<path d="M 98.000000 175.502000 L 104.600000 175.502000 L 104.600000 174.677000 L 98.000000 174.677000 Z " fill="currentColor" fill-opacity="1.000000" />
<path d="M 112.000000 175.502000 L 118.600000 175.502000 L 118.600000 174.677000 L 112.000000 174.677000 Z " fill="currentColor" fill-opacity="1.000000" />
<path d="M 126.000000 175.502000 L 132.600000 175.502000 L 132.600000 174.677000 L 126.000000 174.677000 Z " fill="currentColor" fill-opacity="1.000000" />
<path d="M 140.000000 175.502000 L 146.600000 175.502000 L 146.600000 174.677000 L 140.000000 174.677000 Z " fill="currentColor" fill-opacity="1.000000" />
<path d="M 154.000000 175.502000 L 160.600000 175.502000 L 160.600000 174.677000 L 154.000000 174.677000 Z " fill="currentColor" fill-opacity="1.000000" />
<path d="M 168.000000 175.502000 L 174.600000 175.502000 L 174.600000 174.677000 L 168.000000 174.677000 Z " fill="currentColor" fill-opacity="1.000000" />
<path d="M 182.000000 175.502000 L 188.600000 175.502000 L 188.600000 174.677000 L 182.000000 174.677000 Z " fill="currentColor" fill-opacity="1.000000" />
<path d="M 196.000000 175.502000 L 202.600000 175.502000 L 202.600000 174.677000 L 196.000000 174.677000 Z " fill="currentColor" fill-opacity="1.000000" />
<path d="M 210.000000 175.502000 L 216.600000 175.502000 L 216.600000 174.677000 L 210.000000 174.677000 Z " fill="currentColor" fill-opacity="1.000000" />
<path d="M 224.000000 175.502000 L 230.600000 175.502000 L 230.600000 174.677000 L 224.000000 174.677000 Z " fill="currentColor" fill-opacity="1.000000" />
<path d="M 238.000000 175.502000 L 244.600000 175.502000 L 244.600000 174.677000 L 238.000000 174.677000 Z " fill="currentColor" fill-opacity="1.000000" />
<path d="M 252.000000 175.502000 L 258.600000 175.502000 L 258.600000 174.677000 L 252.000000 174.677000 Z " fill="currentColor" fill-opacity="1.000000" />
<path d="M 266.000000 175.502000 L 272.600000 175.502000 L 272.600000 174.677000 L 266.000000 174.677000 Z " fill="currentColor" fill-opacity="1.000000" />
<path d="M 275.893000 181.684000 L 276.718000 181.684000 L 276.718000 168.484000 L 275.893000 168.484000 Z " fill="currentColor" fill-opacity="1.000000" />
<path d="M 280.000000 175.502000 L 286.600000 175.502000 L 286.600000 174.677000 L 280.000000 174.677000 Z " fill="currentColor" fill-opacity="1.000000" />
<path d="M 294.000000 175.502000 L 300.600000 175.502000 L 300.600000 174.677000 L 294.000000 174.677000 Z " fill="currentColor" fill-opacity="1.000000" />
<path d="M 308.000000 175.502000 L 314.600000 175.502000 L 314.600000 174.677000 L 308.000000 174.677000 Z " fill="currentColor" fill-opacity="1.000000" />
<path d="M 322.000000 175.502000 L 328.600000 175.502000 L 328.600000 174.677000 L 322.000000 174.677000 Z " fill="currentColor" fill-opacity="1.000000" />
<path d="M 336.000000 175.502000 L 342.600000 175.502000 L 342.600000 174.677000 L 336.000000 174.677000 Z " fill="currentColor" fill-opacity="1.000000" />
<path d="M 350.000000 175.502000 L 356.600000 175.502000 L 356.600000 174.677000 L 350.000000 174.677000 Z " fill="currentColor" fill-opacity="1.000000" />
<path d="M 364.000000 175.502000 L 370.600000 175.502000 L 370.600000 174.677000 L 364.000000 174.677000 Z " fill="currentColor" fill-opacity="1.000000" />
<path d="M 378.000000 175.502000 L 384.600000 175.502000 L 384.600000 174.677000 L 378.000000 174.677000 Z " fill="currentColor" fill-opacity="1.000000" />
<path d="M 392.000000 175.502000 L 398.600000 175.502000 L 398.600000 174.677000 L 392.000000 174.677000 Z " fill="currentColor" fill-opacity="1.000000" />
<path d="M 406.000000 175.502000 L 412.600000 175.502000 L 412.600000 174.677000 L 406.000000 174.677000 Z " fill="currentColor" fill-opacity="1.000000" />
<path d="M 420.000000 175.502000 L 426.600000 175.502000 L 426.600000 174.677000 L 420.000000 174.677000 Z " fill="currentColor" fill-opacity="1.000000" />
<path d="M 434.000000 175.502000 L 440.600000 175.502000 L 440.600000 174.677000 L 434.000000 174.677000 Z " fill="currentColor" fill-opacity="1.000000" />
<path d="M 448.000000 175.502000 L 454.600000 175.502000 L 454.600000 174.677000 L 448.000000 174.677000 Z " fill="currentColor" fill-opacity="1.000000" />
<path d="M 100.805000 144.136000 L 102.015000 144.136000 L 102.015000 142.926000 L 100.805000 142.926000 Z M 99.243000 151.000000 L 103.786000 151.000000 L 103.786000 150.219000 L 101.993000 150.219000 L 101.993000 145.302000 L 99.353000 145.302000 L 99.353000 146.083000 L 101.146000 146.083000 L 101.146000 150.219000 L 99.243000 150.219000 Z " fill="currentColor" fill-opacity="1.000000" />
<path d="M 275.893000 167.684000 L 276.718000 167.684000 L 276.718000 154.484000 L 275.893000 154.484000 Z " fill="currentColor" fill-opacity="1.000000" />
<path d="M 451.091000 163.735000 C 451.201000 163.955000 451.410000 163.955000 451.509000 163.735000 L 454.050000 158.422000 C 454.138000 158.235000 454.028000 158.103000 453.885000 158.103000 L 448.715000 158.103000 C 448.550000 158.103000 448.462000 158.257000 448.550000 158.422000 Z " fill="currentColor" fill-opacity="1.000000" />
<path d="M 105.539000 151.000000 L 106.386000 151.000000 L 106.386000 148.085000 C 106.386000 146.457000 106.551000 146.006000 107.189000 146.006000 C 107.761000 146.006000 107.926000 146.358000 107.915000 147.623000 L 107.893000 151.000000 L 108.751000 151.000000 L 108.751000 148.085000 C 108.751000 146.457000 108.927000 146.006000 109.543000 146.006000 C 110.093000 146.006000 110.236000 146.358000 110.236000 147.623000 L 110.236000 151.000000 L 111.083000 151.000000 L 111.083000 147.623000 C 111.083000 145.709000 110.819000 145.192000 109.807000 145.192000 C 109.202000 145.192000 108.960000 145.379000 108.707000 146.061000 L 108.652000 146.061000 C 108.509000 145.379000 108.278000 145.192000 107.574000 145.192000 C 106.870000 145.192000 106.617000 145.379000 106.364000 146.061000 L 106.309000 146.061000 L 106.309000 145.302000 L 105.539000 145.302000 Z " fill="currentColor" fill-opacity="1.000000" />
<path d="M 116.686000 151.000000 L 117.478000 151.000000 L 117.478000 147.271000 C 117.478000 145.566000 117.071000 145.192000 115.245000 145.192000 C 113.606000 145.192000 113.243000 145.489000 113.243000 146.831000 L 114.090000 146.831000 C 114.112000 146.127000 114.332000 145.973000 115.278000 145.973000 C 116.433000 145.973000 116.686000 146.204000 116.686000 147.271000 L 116.686000 147.513000 L 115.597000 147.513000 C 113.507000 147.513000 113.045000 147.865000 113.045000 149.460000 C 113.045000 150.813000 113.386000 151.110000 114.926000 151.110000 C 116.059000 151.110000 116.367000 150.956000 116.631000 150.263000 L 116.686000 150.263000 Z M 116.675000 148.283000 C 116.675000 149.944000 116.378000 150.307000 115.036000 150.307000 C 114.112000 150.307000 113.903000 150.131000 113.903000 149.350000 C 113.903000 148.470000 114.167000 148.283000 115.377000 148.283000 Z " fill="currentColor" fill-opacity="1.000000" />
<path d="M 120.089000 151.682000 C 120.177000 153.057000 120.573000 153.365000 122.289000 153.365000 C 124.236000 153.365000 124.665000 152.958000 124.676000 151.110000 L 124.676000 145.302000 L 123.829000 145.302000 L 123.829000 146.050000 L 123.774000 146.050000 C 123.510000 145.346000 123.224000 145.192000 122.190000 145.192000 C 120.298000 145.192000 119.880000 145.720000 119.880000 148.107000 C 119.880000 150.483000 120.298000 151.000000 122.179000 151.000000 C 123.224000 151.000000 123.510000 150.846000 123.785000 150.131000 L 123.840000 150.131000 L 123.840000 150.989000 C 123.818000 152.298000 123.532000 152.584000 122.234000 152.584000 C 121.211000 152.584000 120.991000 152.419000 120.991000 151.682000 Z M 122.300000 150.208000 C 121.035000 150.208000 120.760000 149.834000 120.760000 148.107000 C 120.760000 146.369000 121.035000 145.984000 122.300000 145.984000 C 123.565000 145.984000 123.840000 146.369000 123.840000 148.107000 C 123.840000 149.834000 123.565000 150.208000 122.300000 150.208000 Z " fill="currentColor" fill-opacity="1.000000" />
<path d="M 130.741000 149.515000 C 130.532000 150.142000 130.290000 150.285000 129.410000 150.285000 C 128.101000 150.285000 127.804000 149.977000 127.760000 148.569000 L 131.731000 148.569000 C 131.764000 145.797000 131.324000 145.192000 129.289000 145.192000 C 127.353000 145.192000 126.924000 145.720000 126.924000 148.140000 C 126.924000 150.571000 127.375000 151.110000 129.443000 151.110000 C 130.983000 151.110000 131.379000 150.824000 131.621000 149.515000 Z M 127.771000 147.777000 C 127.804000 146.336000 128.090000 146.017000 129.333000 146.017000 C 130.554000 146.017000 130.840000 146.336000 130.884000 147.777000 Z " fill="currentColor" fill-opacity="1.000000" />
<path d="M 136.575000 151.000000 L 137.455000 151.000000 L 137.455000 143.520000 L 136.421000 143.520000 L 134.188000 145.126000 L 134.188000 146.193000 L 136.575000 144.488000 Z " fill="currentColor" fill-opacity="1.000000" />
<path d="M 152.203000 151.539000 C 151.048000 151.407000 150.652000 150.989000 150.432000 149.757000 C 150.322000 149.141000 150.256000 148.316000 150.256000 147.579000 C 150.256000 146.897000 150.311000 146.072000 150.432000 145.412000 C 150.652000 144.202000 151.059000 143.773000 152.203000 143.707000 L 152.214000 142.772000 C 150.993000 142.805000 150.003000 143.025000 149.585000 145.126000 C 149.442000 145.841000 149.376000 146.732000 149.376000 147.590000 C 149.376000 148.525000 149.453000 149.427000 149.574000 150.087000 C 149.871000 151.715000 150.520000 152.452000 152.214000 152.474000 Z " fill="currentColor" fill-opacity="1.000000" />
<path d="M 155.012000 151.000000 L 159.786000 151.000000 L 159.786000 150.164000 L 155.925000 150.164000 L 155.925000 150.043000 C 157.861000 148.327000 158.389000 147.799000 158.917000 147.172000 C 159.500000 146.490000 159.621000 146.160000 159.621000 145.401000 C 159.621000 143.773000 159.192000 143.410000 157.256000 143.410000 C 155.397000 143.410000 154.957000 143.751000 154.858000 145.302000 L 155.760000 145.302000 C 155.837000 144.422000 156.112000 144.235000 157.256000 144.235000 C 158.477000 144.235000 158.741000 144.444000 158.741000 145.390000 C 158.741000 145.929000 158.653000 146.149000 158.268000 146.633000 C 157.762000 147.260000 157.179000 147.810000 155.012000 149.691000 Z " fill="currentColor" fill-opacity="1.000000" />
<path d="M 161.924000 151.902000 L 162.848000 151.902000 L 166.676000 142.420000 L 165.752000 142.420000 Z " fill="currentColor" fill-opacity="1.000000" />
<path d="M 171.575000 151.000000 L 172.455000 151.000000 L 172.455000 143.520000 L 171.421000 143.520000 L 169.188000 145.126000 L 169.188000 146.193000 L 171.575000 144.488000 Z " fill="currentColor" fill-opacity="1.000000" />
<path d="M 176.386000 152.474000 C 177.882000 152.452000 178.630000 151.869000 179.004000 150.065000 C 179.158000 149.317000 179.224000 148.448000 179.224000 147.601000 C 179.224000 146.919000 179.169000 145.973000 179.004000 145.170000 C 178.641000 143.377000 177.904000 142.816000 176.386000 142.772000 L 176.397000 143.707000 C 177.398000 143.762000 177.926000 144.169000 178.168000 145.434000 C 178.300000 146.116000 178.333000 146.930000 178.333000 147.601000 C 178.333000 148.371000 178.278000 149.130000 178.168000 149.735000 C 177.937000 151.000000 177.486000 151.418000 176.397000 151.539000 Z " fill="currentColor" fill-opacity="1.000000" />
<path d="M 275.893000 153.684000 L 276.718000 153.684000 L 276.718000 140.484000 L 275.893000 140.484000 Z " fill="currentColor" fill-opacity="1.000000" />
<path d="M 450.893000 153.684000 L 451.718000 153.684000 L 451.718000 140.484000 L 450.893000 140.484000 Z " fill="currentColor" fill-opacity="1.000000" />
<path d="M 275.893000 41.684000 L 276.718000 41.684000 L 276.718000 28.484000 L 275.893000 28.484000 Z " fill="currentColor" fill-opacity="1.000000" />
<path d="M 275.893000 55.684000 L 276.718000 55.684000 L 276.718000 42.484000 L 275.893000 42.484000 Z " fill="currentColor" fill-opacity="1.000000" />
<path d="M 275.893000 69.684000 L 276.718000 69.684000 L 276.718000 56.484000 L 275.893000 56.484000 Z " fill="currentColor" fill-opacity="1.000000" />
<path d="M 275.893000 83.684000 L 276.718000 83.684000 L 276.718000 70.484000 L 275.893000 70.484000 Z " fill="currentColor" fill-opacity="1.000000" />
<path d="M 275.893000 97.684000 L 276.718000 97.684000 L 276.718000 84.484000 L 275.893000 84.484000 Z " fill="currentColor" fill-opacity="1.000000" />
<path d="M 275.893000 111.684000 L 276.718000 111.684000 L 276.718000 98.484000 L 275.893000 98.484000 Z " fill="currentColor" fill-opacity="1.000000" />
<path d="M 275.893000 125.684000 L 276.718000 125.684000 L 276.718000 112.484000 L 275.893000 112.484000 Z " fill="currentColor" fill-opacity="1.000000" />
<path d="M 275.893000 139.684000 L 276.718000 139.684000 L 276.718000 126.484000 L 275.893000 126.484000 Z " fill="currentColor" fill-opacity="1.000000" />
<path d="M 450.893000 41.684000 L 451.718000 41.684000 L 451.718000 28.484000 L 450.893000 28.484000 Z " fill="currentColor" fill-opacity="1.000000" />
<path d="M 450.893000 55.684000 L 451.718000 55.684000 L 451.718000 42.484000 L 450.893000 42.484000 Z " fill="currentColor" fill-opacity="1.000000" />
<path d="M 450.893000 69.684000 L 451.718000 69.684000 L 451.718000 56.484000 L 450.893000 56.484000 Z " fill="currentColor" fill-opacity="1.000000" />
<path d="M 450.893000 83.684000 L 451.718000 83.684000 L 451.718000 70.484000 L 450.893000 70.484000 Z " fill="currentColor" fill-opacity="1.000000" />
<path d="M 450.893000 97.684000 L 451.718000 97.684000 L 451.718000 84.484000 L 450.893000 84.484000 Z " fill="currentColor" fill-opacity="1.000000" />
<path d="M 450.893000 111.684000 L 451.718000 111.684000 L 451.718000 98.484000 L 450.893000 98.484000 Z " fill="currentColor" fill-opacity="1.000000" />
<path d="M 450.893000 125.684000 L 451.718000 125.684000 L 451.718000 112.484000 L 450.893000 112.484000 Z " fill="currentColor" fill-opacity="1.000000" />
<path d="M 450.893000 139.684000 L 451.718000 139.684000 L 451.718000 126.484000 L 450.893000 126.484000 Z " fill="currentColor" fill-opacity="1.000000" />
<path d="M 469.539000 95.000000 L 470.386000 95.000000 L 470.386000 92.085000 C 470.386000 90.457000 470.551000 90.006000 471.189000 90.006000 C 471.761000 90.006000 471.926000 90.358000 471.915000 91.623000 L 471.893000 95.000000 L 472.751000 95.000000 L 472.751000 92.085000 C 472.751000 90.457000 472.927000 90.006000 473.543000 90.006000 C 474.093000 90.006000 474.236000 90.358000 474.236000 91.623000 L 474.236000 95.000000 L 475.083000 95.000000 L 475.083000 91.623000 C 475.083000 89.709000 474.819000 89.192000 473.807000 89.192000 C 473.202000 89.192000 472.960000 89.379000 472.707000 90.061000 L 472.652000 90.061000 C 472.509000 89.379000 472.278000 89.192000 471.574000 89.192000 C 470.870000 89.192000 470.617000 89.379000 470.364000 90.061000 L 470.309000 90.061000 L 470.309000 89.302000 L 469.539000 89.302000 Z " fill="currentColor" fill-opacity="1.000000" />
<path d="M 480.686000 95.000000 L 481.478000 95.000000 L 481.478000 91.271000 C 481.478000 89.566000 481.071000 89.192000 479.245000 89.192000 C 477.606000 89.192000 477.243000 89.489000 477.243000 90.831000 L 478.090000 90.831000 C 478.112000 90.127000 478.332000 89.973000 479.278000 89.973000 C 480.433000 89.973000 480.686000 90.204000 480.686000 91.271000 L 480.686000 91.513000 L 479.597000 91.513000 C 477.507000 91.513000 477.045000 91.865000 477.045000 93.460000 C 477.045000 94.813000 477.386000 95.110000 478.926000 95.110000 C 480.059000 95.110000 480.367000 94.956000 480.631000 94.263000 L 480.686000 94.263000 Z M 480.675000 92.283000 C 480.675000 93.944000 480.378000 94.307000 479.036000 94.307000 C 478.112000 94.307000 477.903000 94.131000 477.903000 93.350000 C 477.903000 92.470000 478.167000 92.283000 479.377000 92.283000 Z " fill="currentColor" fill-opacity="1.000000" />
<path d="M 483.792000 95.000000 L 484.837000 95.000000 L 486.278000 92.767000 L 486.311000 92.767000 L 487.763000 95.000000 L 488.808000 95.000000 L 486.883000 92.129000 L 488.775000 89.302000 L 487.719000 89.302000 L 486.333000 91.535000 L 486.311000 91.535000 L 484.925000 89.302000 L 483.880000 89.302000 L 485.728000 92.129000 Z " fill="currentColor" fill-opacity="1.000000" />
<path d="M 491.309000 92.074000 L 495.291000 92.074000 L 495.291000 91.172000 L 491.309000 91.172000 Z " fill="currentColor" fill-opacity="1.000000" />
<path d="M 498.034000 95.000000 L 498.914000 95.000000 L 498.914000 92.085000 C 498.914000 90.369000 499.189000 89.995000 500.443000 89.995000 C 501.466000 89.995000 501.697000 90.237000 501.697000 91.370000 L 501.697000 95.000000 L 502.577000 95.000000 L 502.577000 91.370000 C 502.577000 89.588000 502.236000 89.192000 500.663000 89.192000 C 499.585000 89.192000 499.277000 89.368000 498.969000 90.171000 L 498.914000 90.171000 L 498.914000 86.926000 L 498.034000 86.926000 Z " fill="currentColor" fill-opacity="1.000000" />
<path d="M 508.741000 93.515000 C 508.532000 94.142000 508.290000 94.285000 507.410000 94.285000 C 506.101000 94.285000 505.804000 93.977000 505.760000 92.569000 L 509.731000 92.569000 C 509.764000 89.797000 509.324000 89.192000 507.289000 89.192000 C 505.353000 89.192000 504.924000 89.720000 504.924000 92.140000 C 504.924000 94.571000 505.375000 95.110000 507.443000 95.110000 C 508.983000 95.110000 509.379000 94.824000 509.621000 93.515000 Z M 505.771000 91.777000 C 505.804000 90.336000 506.090000 90.017000 507.333000 90.017000 C 508.554000 90.017000 508.840000 90.336000 508.884000 91.777000 Z " fill="currentColor" fill-opacity="1.000000" />
<path d="M 513.805000 88.136000 L 515.015000 88.136000 L 515.015000 86.926000 L 513.805000 86.926000 Z M 512.243000 95.000000 L 516.786000 95.000000 L 516.786000 94.219000 L 514.993000 94.219000 L 514.993000 89.302000 L 512.353000 89.302000 L 512.353000 90.083000 L 514.146000 90.083000 L 514.146000 94.219000 L 512.243000 94.219000 Z " fill="currentColor" fill-opacity="1.000000" />
<path d="M 519.089000 95.682000 C 519.177000 97.057000 519.573000 97.365000 521.289000 97.365000 C 523.236000 97.365000 523.665000 96.958000 523.676000 95.110000 L 523.676000 89.302000 L 522.829000 89.302000 L 522.829000 90.050000 L 522.774000 90.050000 C 522.510000 89.346000 522.224000 89.192000 521.190000 89.192000 C 519.298000 89.192000 518.880000 89.720000 518.880000 92.107000 C 518.880000 94.483000 519.298000 95.000000 521.179000 95.000000 C 522.224000 95.000000 522.510000 94.846000 522.785000 94.131000 L 522.840000 94.131000 L 522.840000 94.989000 C 522.818000 96.298000 522.532000 96.584000 521.234000 96.584000 C 520.211000 96.584000 519.991000 96.419000 519.991000 95.682000 Z M 521.300000 94.208000 C 520.035000 94.208000 519.760000 93.834000 519.760000 92.107000 C 519.760000 90.369000 520.035000 89.984000 521.300000 89.984000 C 522.565000 89.984000 522.840000 90.369000 522.840000 92.107000 C 522.840000 93.834000 522.565000 94.208000 521.300000 94.208000 Z " fill="currentColor" fill-opacity="1.000000" />
<path d="M 526.034000 95.000000 L 526.914000 95.000000 L 526.914000 92.085000 C 526.914000 90.369000 527.189000 89.995000 528.443000 89.995000 C 529.466000 89.995000 529.697000 90.237000 529.697000 91.370000 L 529.697000 95.000000 L 530.577000 95.000000 L 530.577000 91.370000 C 530.577000 89.588000 530.236000 89.192000 528.663000 89.192000 C 527.585000 89.192000 527.277000 89.368000 526.969000 90.171000 L 526.914000 90.171000 L 526.914000 86.926000 L 526.034000 86.926000 Z " fill="currentColor" fill-opacity="1.000000" />
<path d="M 532.858000 90.061000 L 534.354000 90.061000 L 534.354000 93.273000 C 534.354000 94.780000 534.673000 95.110000 536.136000 95.110000 C 536.532000 95.110000 536.774000 95.088000 537.500000 94.989000 L 537.500000 94.186000 C 536.807000 94.263000 536.587000 94.285000 536.323000 94.285000 C 535.410000 94.285000 535.212000 94.098000 535.212000 93.229000 L 535.212000 90.061000 L 537.258000 90.061000 L 537.258000 89.302000 L 535.223000 89.302000 L 535.223000 87.652000 L 534.376000 88.015000 L 534.376000 89.302000 L 533.078000 89.302000 Z " fill="currentColor" fill-opacity="1.000000" />
<path d="M 7.000000 21.502000 L 13.600000 21.502000 L 13.600000 20.677000 L 7.000000 20.677000 Z " fill="currentColor" fill-opacity="1.000000" />
<path d="M 14.000000 21.502000 L 20.600000 21.502000 L 20.600000 20.677000 L 14.000000 20.677000 Z " fill="currentColor" fill-opacity="1.000000" />
<path d="M 21.000000 21.502000 L 27.600000 21.502000 L 27.600000 20.677000 L 21.000000 20.677000 Z " fill="currentColor" fill-opacity="1.000000" />
<path d="M 28.000000 21.502000 L 34.600000 21.502000 L 34.600000 20.677000 L 28.000000 20.677000 Z " fill="currentColor" fill-opacity="1.000000" />
<path d="M 35.000000 21.502000 L 41.600000 21.502000 L 41.600000 20.677000 L 35.000000 20.677000 Z " fill="currentColor" fill-opacity="1.000000" />
<path d="M 42.000000 21.502000 L 48.600000 21.502000 L 48.600000 20.677000 L 42.000000 20.677000 Z " fill="currentColor" fill-opacity="1.000000" />
<path d="M 49.000000 21.502000 L 55.600000 21.502000 L 55.600000 20.677000 L 49.000000 20.677000 Z " fill="currentColor" fill-opacity="1.000000" />
<path d="M 56.000000 21.502000 L 62.600000 21.502000 L 62.600000 20.677000 L 56.000000 20.677000 Z " fill="currentColor" fill-opacity="1.000000" />
<path d="M 63.000000 21.502000 L 69.600000 21.502000 L 69.600000 20.677000 L 63.000000 20.677000 Z " fill="currentColor" fill-opacity="1.000000" />
<path d="M 70.000000 21.502000 L 76.600000 21.502000 L 76.600000 20.677000 L 70.000000 20.677000 Z " fill="currentColor" fill-opacity="1.000000" />
<path d="M 77.000000 21.502000 L 83.600000 21.502000 L 83.600000 20.677000 L 77.000000 20.677000 Z " fill="currentColor" fill-opacity="1.000000" />
<path d="M 84.000000 21.502000 L 90.600000 21.502000 L 90.600000 20.677000 L 84.000000 20.677000 Z " fill="currentColor" fill-opacity="1.000000" />
<path d="M 91.000000 21.502000 L 97.600000 21.502000 L 97.600000 20.677000 L 91.000000 20.677000 Z " fill="currentColor" fill-opacity="1.000000" />
<path d="M 98.000000 21.502000 L 104.600000 21.502000 L 104.600000 20.677000 L 98.000000 20.677000 Z " fill="currentColor" fill-opacity="1.000000" />
<path d="M 105.000000 21.502000 L 111.600000 21.502000 L 111.600000 20.677000 L 105.000000 20.677000 Z " fill="currentColor" fill-opacity="1.000000" />
<path d="M 112.000000 21.502000 L 118.600000 21.502000 L 118.600000 20.677000 L 112.000000 20.677000 Z " fill="currentColor" fill-opacity="1.000000" />
<path d="M 119.000000 21.502000 L 125.600000 21.502000 L 125.600000 20.677000 L 119.000000 20.677000 Z " fill="currentColor" fill-opacity="1.000000" />
<path d="M 126.000000 21.502000 L 132.600000 21.502000 L 132.600000 20.677000 L 126.000000 20.677000 Z " fill="currentColor" fill-opacity="1.000000" />
<path d="M 133.000000 21.502000 L 139.600000 21.502000 L 139.600000 20.677000 L 133.000000 20.677000 Z " fill="currentColor" fill-opacity="1.000000" />
<path d="M 140.000000 21.502000 L 146.600000 21.502000 L 146.600000 20.677000 L 140.000000 20.677000 Z " fill="currentColor" fill-opacity="1.000000" />
<path d="M 147.000000 21.502000 L 153.600000 21.502000 L 153.600000 20.677000 L 147.000000 20.677000 Z " fill="currentColor" fill-opacity="1.000000" />
<path d="M 154.000000 21.502000 L 160.600000 21.502000 L 160.600000 20.677000 L 154.000000 20.677000 Z " fill="currentColor" fill-opacity="1.000000" />
<path d="M 161.000000 21.502000 L 167.600000 21.502000 L 167.600000 20.677000 L 161.000000 20.677000 Z " fill="currentColor" fill-opacity="1.000000" />
<path d="M 168.000000 21.502000 L 174.600000 21.502000 L 174.600000 20.677000 L 168.000000 20.677000 Z " fill="currentColor" fill-opacity="1.000000" />
<path d="M 175.000000 21.502000 L 181.600000 21.502000 L 181.600000 20.677000 L 175.000000 20.677000 Z " fill="currentColor" fill-opacity="1.000000" />
<path d="M 182.000000 21.502000 L 188.600000 21.502000 L 188.600000 20.677000 L 182.000000 20.677000 Z " fill="currentColor" fill-opacity="1.000000" />
<path d="M 189.000000 21.502000 L 195.600000 21.502000 L 195.600000 20.677000 L 189.000000 20.677000 Z " fill="currentColor" fill-opacity="1.000000" />
<path d="M 196.000000 21.502000 L 202.600000 21.502000 L 202.600000 20.677000 L 196.000000 20.677000 Z " fill="currentColor" fill-opacity="1.000000" />
<path d="M 203.000000 21.502000 L 209.600000 21.502000 L 209.600000 20.677000 L 203.000000 20.677000 Z " fill="currentColor" fill-opacity="1.000000" />
<path d="M 210.000000 21.502000 L 216.600000 21.502000 L 216.600000 20.677000 L 210.000000 20.677000 Z " fill="currentColor" fill-opacity="1.000000" />
<path d="M 217.000000 21.502000 L 223.600000 21.502000 L 223.600000 20.677000 L 217.000000 20.677000 Z " fill="currentColor" fill-opacity="1.000000" />
<path d="M 224.000000 21.502000 L 230.600000 21.502000 L 230.600000 20.677000 L 224.000000 20.677000 Z " fill="currentColor" fill-opacity="1.000000" />
<path d="M 231.000000 21.502000 L 237.600000 21.502000 L 237.600000 20.677000 L 231.000000 20.677000 Z " fill="currentColor" fill-opacity="1.000000" />
<path d="M 238.000000 21.502000 L 244.600000 21.502000 L 244.600000 20.677000 L 238.000000 20.677000 Z " fill="currentColor" fill-opacity="1.000000" />
<path d="M 245.000000 21.502000 L 251.600000 21.502000 L 251.600000 20.677000 L 245.000000 20.677000 Z " fill="currentColor" fill-opacity="1.000000" />
<path d="M 252.000000 21.502000 L 258.600000 21.502000 L 258.600000 20.677000 L 252.000000 20.677000 Z " fill="currentColor" fill-opacity="1.000000" />
<path d="M 259.000000 21.502000 L 265.600000 21.502000 L 265.600000 20.677000 L 259.000000 20.677000 Z " fill="currentColor" fill-opacity="1.000000" />
<path d="M 266.000000 21.502000 L 272.600000 21.502000 L 272.600000 20.677000 L 266.000000 20.677000 Z " fill="currentColor" fill-opacity="1.000000" />
<path d="M 273.000000 21.502000 L 275.893000 21.502000 L 275.893000 27.684000 L 276.718000 27.684000 L 276.718000 20.677000 L 273.000000 20.677000 Z " fill="currentColor" fill-opacity="1.000000" />
<path d="M 448.715000 24.054000 L 453.885000 24.054000 C 454.050000 24.054000 454.127000 23.900000 454.050000 23.735000 L 451.509000 18.422000 C 451.410000 18.202000 451.201000 18.202000 451.091000 18.422000 L 448.550000 23.735000 C 448.462000 23.900000 448.550000 24.054000 448.715000 24.054000 Z " fill="currentColor" fill-opacity="1.000000" />
<path d="M 14.000000 7.502000 L 20.600000 7.502000 L 20.600000 6.677000 L 14.000000 6.677000 Z " fill="currentColor" fill-opacity="1.000000" />
<path d="M 28.000000 7.502000 L 34.600000 7.502000 L 34.600000 6.677000 L 28.000000 6.677000 Z " fill="currentColor" fill-opacity="1.000000" />
<path d="M 42.000000 7.502000 L 48.600000 7.502000 L 48.600000 6.677000 L 42.000000 6.677000 Z " fill="currentColor" fill-opacity="1.000000" />
<path d="M 56.000000 7.502000 L 62.600000 7.502000 L 62.600000 6.677000 L 56.000000 6.677000 Z " fill="currentColor" fill-opacity="1.000000" />
<path d="M 70.000000 7.502000 L 76.600000 7.502000 L 76.600000 6.677000 L 70.000000 6.677000 Z " fill="currentColor" fill-opacity="1.000000" />
<path d="M 84.000000 7.502000 L 90.600000 7.502000 L 90.600000 6.677000 L 84.000000 6.677000 Z " fill="currentColor" fill-opacity="1.000000" />
<path d="M 98.000000 7.502000 L 104.600000 7.502000 L 104.600000 6.677000 L 98.000000 6.677000 Z " fill="currentColor" fill-opacity="1.000000" />
<path d="M 112.000000 7.502000 L 118.600000 7.502000 L 118.600000 6.677000 L 112.000000 6.677000 Z " fill="currentColor" fill-opacity="1.000000" />
<path d="M 126.000000 7.502000 L 132.600000 7.502000 L 132.600000 6.677000 L 126.000000 6.677000 Z " fill="currentColor" fill-opacity="1.000000" />
<path d="M 140.000000 7.502000 L 146.600000 7.502000 L 146.600000 6.677000 L 140.000000 6.677000 Z " fill="currentColor" fill-opacity="1.000000" />
<path d="M 154.000000 7.502000 L 160.600000 7.502000 L 160.600000 6.677000 L 154.000000 6.677000 Z " fill="currentColor" fill-opacity="1.000000" />
<path d="M 168.000000 7.502000 L 174.600000 7.502000 L 174.600000 6.677000 L 168.000000 6.677000 Z " fill="currentColor" fill-opacity="1.000000" />
<path d="M 182.000000 7.502000 L 188.600000 7.502000 L 188.600000 6.677000 L 182.000000 6.677000 Z " fill="currentColor" fill-opacity="1.000000" />
<path d="M 196.000000 7.502000 L 202.600000 7.502000 L 202.600000 6.677000 L 196.000000 6.677000 Z " fill="currentColor" fill-opacity="1.000000" />
<path d="M 210.000000 7.502000 L 216.600000 7.502000 L 216.600000 6.677000 L 210.000000 6.677000 Z " fill="currentColor" fill-opacity="1.000000" />
<path d="M 224.000000 7.502000 L 230.600000 7.502000 L 230.600000 6.677000 L 224.000000 6.677000 Z " fill="currentColor" fill-opacity="1.000000" />
<path d="M 238.000000 7.502000 L 244.600000 7.502000 L 244.600000 6.677000 L 238.000000 6.677000 Z " fill="currentColor" fill-opacity="1.000000" />
<path d="M 252.000000 7.502000 L 258.600000 7.502000 L 258.600000 6.677000 L 252.000000 6.677000 Z " fill="currentColor" fill-opacity="1.000000" />
<path d="M 266.000000 7.502000 L 272.600000 7.502000 L 272.600000 6.677000 L 266.000000 6.677000 Z " fill="currentColor" fill-opacity="1.000000" />
<path d="M 280.000000 7.502000 L 286.600000 7.502000 L 286.600000 6.677000 L 280.000000 6.677000 Z " fill="currentColor" fill-opacity="1.000000" />
<path d="M 294.000000 7.502000 L 300.600000 7.502000 L 300.600000 6.677000 L 294.000000 6.677000 Z " fill="currentColor" fill-opacity="1.000000" />
<path d="M 308.000000 7.502000 L 314.600000 7.502000 L 314.600000 6.677000 L 308.000000 6.677000 Z " fill="currentColor" fill-opacity="1.000000" />
<path d="M 322.000000 7.502000 L 328.600000 7.502000 L 328.600000 6.677000 L 322.000000 6.677000 Z " fill="currentColor" fill-opacity="1.000000" />
<path d="M 336.000000 7.502000 L 342.600000 7.502000 L 342.600000 6.677000 L 336.000000 6.677000 Z " fill="currentColor" fill-opacity="1.000000" />
<path d="M 350.000000 7.502000 L 356.600000 7.502000 L 356.600000 6.677000 L 350.000000 6.677000 Z " fill="currentColor" fill-opacity="1.000000" />
<path d="M 364.000000 7.502000 L 370.600000 7.502000 L 370.600000 6.677000 L 364.000000 6.677000 Z " fill="currentColor" fill-opacity="1.000000" />
<path d="M 378.000000 7.502000 L 384.600000 7.502000 L 384.600000 6.677000 L 378.000000 6.677000 Z " fill="currentColor" fill-opacity="1.000000" />
<path d="M 392.000000 7.502000 L 398.600000 7.502000 L 398.600000 6.677000 L 392.000000 6.677000 Z " fill="currentColor" fill-opacity="1.000000" />
<path d="M 406.000000 7.502000 L 412.600000 7.502000 L 412.600000 6.677000 L 406.000000 6.677000 Z " fill="currentColor" fill-opacity="1.000000" />
<path d="M 420.000000 7.502000 L 426.600000 7.502000 L 426.600000 6.677000 L 420.000000 6.677000 Z " fill="currentColor" fill-opacity="1.000000" />
<path d="M 434.000000 7.502000 L 440.600000 7.502000 L 440.600000 6.677000 L 434.000000 6.677000 Z " fill="currentColor" fill-opacity="1.000000" />
<path d="M 448.000000 7.502000 L 454.600000 7.502000 L 454.600000 6.677000 L 448.000000 6.677000 Z " fill="currentColor" fill-opacity="1.000000" />
</svg>
